<?xml version="1.0" encoding="utf-8"?>
<svg style="display: block;margin-left: auto;margin-right: auto;" x="0" y="0" width="935" height="1210" viewBox="31 29 532 457" xmlns="http://www.w3.org/2000/svg">
  <defs>
    <style type="text/css">

.g5_1{
fill: #F5CC22;
}
.g6_1{
fill: #F79822;
}
.g15_1{
fill: #785C36;
}
.g14_1{
fill: #A0D9DC;
}
.g8_1{
fill: #ECEDEC;
}
.g12_1{
fill: #F8EAAA;
}
.g18_1{
fill: #EDD983;
}
.g7_1{
fill: #FFFFFF;
}
.g13_1{
fill: #D7D5D3;
}
.g1_1{
fill: #B9CA35;
}
.g10_1{
fill: #EEA4C7;
}
.g19_1{
fill: #E987B0;
}
.g9_1{
fill: #D8ACCF;
}
.g11_1{
fill: #C9E9EC;
}
.g2_1{
fill: #EE304C;
}
.g3_1{
fill: #5F2B12;
}
.g17_1{
fill: #E7E8E9;
}
.g4_1{
fill: #1FA5A9;
}
.g16_1{
fill: #E9E7E4;
}

.s3_1{
font-size: 18.31px;
font-family: Trocchi_3u;
fill: TRANSPARENT;
}
.s4_1{
font-size: 18.31px;
font-family: Trocchi_3c;
fill: TRANSPARENT;
}
.s5_1{
font-size: 13.12px;
font-family: Trocchi_3c;
fill: TRANSPARENT;
}
.s2_1{
font-size: 24.16px;
font-family: Trocchi_3c;
fill: TRANSPARENT;
}
.s1_1{
font-size: 19.19px;
font-family: Trocchi_3c;
fill: TRANSPARENT;
}

</style>
  </defs>
  <g fill="#5F2B12"/>
  <g fill="#EE304C"/>
  <text x="4.079" y="31.131" class="s1_1" style="white-space: pre; font-size: 19.2px;">Keep multi-layered shapes the same size so they will layer correctly!</text>
  <g fill="#EE304C"/>
  <g fill="#EE304C"/>
  <g fill="#EE304C"/>
  <g fill="#EE304C"/>
  <g fill="#5F2B12"/>
  <g fill="#5F2B12"/>
  <g fill="#5F2B12"/>
  <g fill="#5F2B12"/>
  <g fill="#5F2B12"/>
  <g fill="#5F2B12"/>
  <text x="728" y="519" class="s1_1" style="white-space: pre;">base of unicorn</text>
  <g fill="#5F2B12"/>
  <text x="623.079" y="266.131" class="s1_1" style="white-space: pre; font-size: 19.2px;">(optional)</text>
  <g fill="#5F2B12"/>
  <g fill="#5F2B12"/>
  <g fill="#5F2B12"/>
  <g fill="#5F2B12"/>
  <g fill="#5F2B12"/>
  <g fill="#5F2B12"/>
  <g fill="#5F2B12"/>
  <g fill="#5F2B12"/>
  <text x="-69.921" y="464.131" class="s1_1" style="white-space: pre; font-size: 19.2px;">layered from </text>
  <g fill="#5F2B12"/>
  <text x="-68.921" y="487.131" class="s1_1" style="white-space: pre; font-size: 19.2px;">front to back</text>
  <g fill="#5F2B12"/>
  <g fill="#5F2B12"/>
  <path d="M 132.979 293.531 C 134.279 293.631 135.579 293.831 136.879 294.131 C 137.379 292.831 137.979 291.531 138.679 290.331 C 139.679 288.531 140.779 286.731 141.879 285.031 C 140.679 284.231 139.379 283.431 139.179 283.331 C 137.579 282.431 135.979 281.531 134.379 280.831 C 131.479 279.531 128.379 278.731 125.279 278.731 C 122.679 278.731 119.979 279.131 117.579 280.131 C 114.979 281.131 112.979 282.931 111.479 285.131 C 110.379 286.931 109.479 288.731 108.679 290.731 C 107.779 292.931 107.079 295.231 106.379 297.431 C 105.979 298.731 105.579 299.931 105.179 301.231 C 104.179 305.031 103.179 308.731 102.079 312.531 C 100.979 316.331 99.979 320.131 98.879 323.831 C 97.779 327.531 96.479 331.231 94.979 334.731 C 93.479 338.131 91.579 341.031 88.579 343.231 C 85.379 345.731 76.979 346.931 71.579 344.331 C 70.579 357.531 82.279 368.231 94.679 367.331 C 119.679 365.631 116.179 343.831 116.479 334.931 C 117.179 316.031 117.679 311.931 118.279 308.631 C 118.779 305.631 119.179 302.631 120.479 299.931 C 122.179 296.431 125.579 294.131 129.279 293.631 C 130.479 293.431 131.779 293.431 132.979 293.531 Z" class="g9_1"/>
  <path d="M 219.979 248.331 C 220.379 248.431 220.879 248.631 221.379 248.731 C 227.979 247.931 234.179 247.231 238.579 246.331 C 240.779 245.931 242.779 245.331 244.679 244.731 C 252.579 237.931 256.579 226.631 259.479 220.731 C 270.279 199.431 272.979 195.031 275.379 191.431 C 277.379 188.331 279.479 185.031 282.279 182.431 C 283.979 180.831 286.079 179.731 288.179 179.131 C 290.179 176.131 292.379 173.231 294.779 170.731 C 292.279 166.031 290.179 161.931 288.579 158.631 C 285.879 158.931 283.379 160.031 280.979 161.731 C 278.879 163.231 276.979 164.931 275.079 166.831 C 272.979 168.931 271.079 171.231 269.179 173.531 C 268.079 174.731 267.079 176.031 265.979 177.331 C 262.879 181.231 259.879 185.031 256.779 188.931 C 253.679 192.731 250.579 196.631 247.479 200.431 C 244.379 204.231 241.079 207.731 237.679 211.131 C 234.279 214.431 230.879 216.831 226.579 218.131 C 222.079 219.531 212.779 217.231 208.779 212.031 C 200.679 226.631 206.879 243.931 219.979 248.331 Z" class="g19_1"/>
  <path d="M 372.979 256.731 C 385.079 256.731 398.479 253.131 412.879 246.131 C 443.779 231.031 456.779 197.931 447.679 178.331 C 443.079 168.431 427.679 152.031 403.079 130.831 C 390.879 120.231 379.179 111.031 372.379 105.731 C 377.879 90.231 373.279 65.131 369.679 46.131 L 369.579 45.631 C 349.279 57.431 334.079 73.131 328.279 87.231 C 321.579 87.531 314.879 89.431 308.179 93.031 C 296.479 99.131 287.779 109.331 284.079 120.831 C 280.879 118.931 276.779 118.031 271.479 118.031 C 259.479 118.031 244.579 122.831 232.579 126.731 C 245.879 143.831 262.879 155.131 275.379 155.131 C 278.679 155.131 280.379 152.231 285.579 152.331 C 289.079 156.431 301.379 170.731 295.579 174.831 C 284.379 182.731 274.279 219.531 260.779 236.331 C 253.279 245.531 228.079 250.631 223.279 249.131 C 206.379 251.131 184.479 253.331 173.779 258.131 C 158.679 265.031 147.179 276.231 139.179 290.631 C 139.179 290.731 139.179 290.731 139.179 290.831 C 138.479 290.331 133.379 288.031 132.879 287.831 C 130.879 286.931 128.779 286.131 126.679 285.531 C 123.079 284.531 119.379 284.031 115.679 284.531 C 112.579 284.931 109.379 285.831 106.679 287.331 C 103.779 288.931 101.679 291.331 100.279 294.231 C 99.179 296.431 98.379 298.831 97.779 301.331 C 96.979 304.031 96.479 306.831 95.979 309.631 C 95.779 311.131 95.479 312.731 95.279 314.231 C 94.579 318.931 93.979 323.531 93.279 328.131 C 92.579 332.831 91.979 337.531 91.179 342.131 C 90.479 346.631 89.479 351.231 88.179 355.631 C 86.979 359.931 85.179 363.631 81.979 366.731 C 78.579 370.131 68.679 372.831 61.979 370.631 C 62.779 386.531 78.179 397.331 92.879 394.431 C 122.379 388.531 114.879 363.231 113.879 352.631 C 111.679 330.031 111.679 325.131 111.879 321.031 C 112.079 317.531 112.079 313.831 113.179 310.331 C 114.679 305.931 118.279 302.731 122.679 301.531 C 124.179 301.131 125.579 300.931 127.079 300.831 C 129.579 300.731 132.279 300.931 134.779 301.331 C 131.579 312.231 131.379 323.931 132.579 335.131 C 133.979 348.131 139.079 361.831 147.379 372.531 C 128.879 387.731 107.079 405.431 107.679 410.931 C 108.679 418.931 119.579 428.031 127.679 429.731 C 133.479 431.031 151.579 407.531 166.479 388.131 C 170.679 390.031 174.979 391.331 179.479 392.131 C 175.179 423.531 169.379 464.131 174.979 468.731 C 182.979 475.431 201.079 474.531 210.179 469.031 C 216.779 465.131 212.979 424.031 209.879 392.331 C 222.279 391.431 235.779 390.031 242.779 389.131 C 253.279 387.631 263.779 385.431 273.979 382.731 C 288.179 379.131 302.179 373.731 313.379 364.431 C 333.979 389.331 363.779 425.831 372.079 425.531 C 382.479 425.031 393.679 410.031 395.979 399.631 C 397.779 391.431 356.679 361.131 330.679 341.931 C 334.379 334.631 337.279 326.531 339.279 318.431 C 347.079 314.931 354.279 311.531 359.879 308.931 C 375.079 327.631 398.879 359.131 406.479 358.931 C 414.979 358.731 424.179 346.431 425.879 338.031 C 427.679 329.431 370.779 288.331 363.679 287.731 C 361.679 287.631 353.579 288.831 343.079 290.831 C 343.279 275.231 339.879 259.131 339.179 243.531 C 347.979 252.131 359.479 256.731 372.879 256.731 L 372.979 256.731 Z" class="g19_1"/>
  <path d="M 400.279 173.431 C 397.479 174.031 394.779 172.331 394.179 169.531 C 393.579 166.831 395.379 164.131 398.079 163.531 C 400.879 162.931 403.579 164.631 404.179 167.431 C 404.779 170.131 402.979 172.831 400.279 173.431 M 375.379 251.231 C 367.479 251.231 364.279 243.231 363.879 238.031 C 363.779 236.231 367.279 236.131 367.379 237.931 C 367.679 241.431 369.479 247.831 374.879 248.331 C 381.979 249.031 384.479 241.831 384.579 237.431 C 384.579 235.631 388.079 235.431 388.079 237.231 C 387.879 243.231 384.379 251.231 375.379 251.231 M 360.279 190.231 C 359.679 187.431 361.479 184.731 364.179 184.131 C 366.979 183.631 369.679 185.331 370.279 188.131 C 370.879 190.831 369.079 193.531 366.379 194.131 C 363.579 194.731 360.879 192.931 360.279 190.231 M 450.679 178.031 C 447.379 170.931 438.179 160.731 426.579 149.631 C 400.479 149.631 368.779 163.931 342.579 190.231 C 333.379 199.431 326.279 208.231 320.179 218.331 C 323.179 225.931 328.679 233.231 331.379 237.331 C 347.779 261.831 377.779 266.531 414.779 248.531 C 447.779 232.431 459.779 197.631 450.679 178.031 Z" class="g10_1"/>
  <path d="M 161.879 187.131 L 196.579 180.331 L 158.679 175.731 L 169.579 154.531 L 154.979 169.131 L 148.379 135.631 L 143.879 173.331 L 121.679 162.031 L 136.979 177.231 L 103.779 183.831 L 140.279 188.231 L 129.179 209.931 L 145.079 194.031 L 151.979 228.531 L 156.279 191.731 L 177.079 202.431 Z" class="g11_1"/>
  <path d="M 97.079 144.331 L 123.979 139.031 L 94.679 135.531 L 103.079 119.031 L 91.779 130.331 L 86.679 104.431 L 83.179 133.631 L 65.979 124.831 L 77.779 136.631 L 52.079 141.731 L 80.379 145.131 L 71.779 161.931 L 84.179 149.631 L 89.379 176.331 L 92.779 147.831 L 108.879 156.131 Z" class="g12_1"/>
  <path d="M 81.079 221.431 L 107.979 216.131 L 78.679 212.731 L 87.079 196.231 L 75.779 207.531 L 70.679 181.631 L 67.179 210.831 L 50.079 202.031 L 61.879 213.831 L 36.179 218.931 L 64.479 222.331 L 55.779 239.031 L 68.179 226.831 L 73.479 253.431 L 76.779 225.031 L 92.879 233.331 Z" class="g10_1"/>
  <path d="M 490.979 289.131 L 525.679 282.331 L 487.779 277.831 L 498.679 256.531 L 484.079 271.131 L 477.479 237.631 L 472.979 275.331 L 450.779 264.031 L 466.079 279.331 L 432.879 285.831 L 469.379 290.231 L 458.279 311.931 L 474.179 296.031 L 480.979 330.531 L 485.379 293.731 L 506.179 304.431 Z" class="g11_1"/>
  <path d="M 526.379 219.831 L 553.279 214.531 L 523.979 211.031 L 532.379 194.531 L 521.079 205.831 L 515.979 179.931 L 512.479 209.131 L 495.279 200.331 L 507.079 212.131 L 481.379 217.231 L 509.679 220.631 L 501.079 237.431 L 513.479 225.131 L 518.679 251.831 L 522.079 223.431 L 538.179 231.631 Z" class="g12_1"/>
  <path d="M 283.679 148.331 C 281.679 149.631 279.379 150.231 276.779 150.231 C 267.279 150.231 254.979 141.931 245.479 129.131 C 245.179 128.731 245.179 128.231 245.379 127.831 L 245.479 127.531 C 245.579 127.231 245.879 127.031 246.179 126.931 L 247.479 126.531 C 255.579 123.831 265.779 120.631 274.179 120.631 C 277.179 120.631 279.879 121.031 281.979 121.931 C 282.579 122.131 282.879 122.831 282.779 123.431 C 280.779 131.331 281.279 139.431 284.179 146.831 C 284.379 147.431 284.179 148.031 283.679 148.331 M 336.079 85.331 C 340.779 75.331 351.679 64.731 365.279 57.131 C 365.479 56.931 365.679 56.931 365.879 56.931 C 366.179 56.931 366.379 57.031 366.579 57.131 L 366.879 57.331 C 367.179 57.531 367.379 57.831 367.479 58.131 L 367.779 59.731 C 370.279 73.131 373.379 89.631 369.479 100.631 C 369.379 101.031 368.979 101.331 368.679 101.431 C 368.479 101.531 368.379 101.531 368.279 101.531 C 367.979 101.531 367.679 101.431 367.479 101.231 C 366.779 100.731 366.479 100.431 366.379 100.431 C 355.579 92.731 346.279 88.531 337.079 87.131 C 336.679 87.131 336.379 86.831 336.179 86.531 C 335.979 86.131 335.979 85.731 336.079 85.331 M 363.679 288.431 C 363.579 288.431 363.379 288.431 363.279 288.431 C 360.779 288.431 353.779 289.531 343.979 291.331 C 343.879 291.331 343.779 291.331 343.679 291.331 C 343.379 291.331 343.079 291.231 342.879 291.031 C 342.579 290.831 342.479 290.431 342.479 290.031 C 342.479 281.431 341.379 272.531 340.379 263.931 C 339.779 258.531 339.079 252.931 338.679 247.331 C 335.479 244.431 332.579 241.031 329.979 237.231 C 327.279 233.231 323.579 227.031 318.979 218.931 C 318.779 218.531 318.779 218.031 319.079 217.631 C 325.079 207.731 332.279 198.731 341.579 189.431 C 366.179 164.631 396.579 149.531 423.479 148.531 C 406.179 131.931 385.079 114.931 373.679 106.031 C 373.279 105.731 373.079 105.231 373.279 104.631 C 378.179 88.931 373.579 64.131 370.179 45.931 L 369.979 44.731 C 350.179 56.231 334.579 71.531 328.279 86.031 C 328.079 86.331 327.779 86.631 327.379 86.731 C 303.479 92.631 288.979 103.131 284.479 117.831 C 284.379 118.231 284.279 118.531 284.179 118.731 C 284.079 119.031 283.879 119.331 283.479 119.431 C 283.379 119.531 283.179 119.531 282.979 119.531 C 282.879 119.531 282.679 119.531 282.479 119.431 C 279.579 118.131 275.879 117.531 271.479 117.531 C 259.379 117.531 244.379 122.331 232.279 126.231 L 231.679 126.431 C 245.179 143.931 262.579 155.731 275.379 155.731 C 279.179 155.731 282.479 154.631 285.279 152.631 C 285.479 152.431 285.779 152.331 285.979 152.331 C 286.079 152.331 286.179 152.331 286.279 152.431 C 286.679 152.531 286.979 152.731 287.179 153.031 C 289.079 156.831 292.079 162.831 295.879 170.131 C 296.079 170.631 296.079 171.131 295.679 171.531 C 287.579 180.231 281.779 193.131 277.179 204.531 C 269.279 224.431 261.779 243.131 238.779 247.631 C 233.679 248.631 226.279 249.431 218.379 250.431 C 202.079 252.331 183.679 254.431 174.079 258.731 C 159.479 265.331 147.979 276.231 139.779 290.931 C 133.579 302.331 131.379 317.231 133.279 335.031 C 134.679 348.231 139.879 361.631 147.579 371.631 C 147.979 372.231 116.379 397.131 111.579 404.031 C 111.379 404.231 111.779 404.531 112.079 404.631 C 116.679 406.831 128.679 413.431 129.779 414.231 C 130.079 413.931 136.479 417.931 138.879 420.331 C 145.479 413.431 154.479 402.531 165.679 388.131 C 165.979 387.831 166.279 387.631 166.679 387.631 C 166.879 387.631 167.079 387.631 167.179 387.731 C 170.879 389.331 174.779 390.531 179.079 391.331 C 179.679 391.431 170.179 445.831 172.779 462.431 C 172.779 462.631 172.879 462.831 172.979 462.931 C 173.079 463.031 173.179 463.031 173.379 463.031 C 173.379 463.031 173.479 463.031 173.479 463.031 C 179.379 461.031 184.579 459.531 189.379 458.431 C 189.379 458.031 206.879 454.331 212.579 454.231 C 213.179 438.231 211.079 412.131 209.279 392.931 C 209.279 392.631 209.379 392.331 209.579 392.031 C 209.779 391.731 210.079 391.631 210.479 391.531 C 223.079 390.731 236.279 389.331 242.679 388.431 C 252.279 387.131 262.479 385.031 273.779 382.131 C 290.579 377.831 303.479 370.531 312.379 365.231 C 330.679 387.231 353.879 413.831 365.679 422.931 C 365.779 423.031 365.979 423.031 366.079 423.031 C 366.179 423.031 366.179 423.031 366.279 423.031 C 366.379 422.931 366.579 422.831 366.679 422.631 C 369.979 414.931 375.479 408.031 382.779 402.131 C 382.479 401.931 388.879 396.631 392.779 394.531 C 383.779 383.031 354.179 360.131 330.679 342.831 C 330.179 342.431 330.079 341.731 330.279 341.231 C 333.579 334.631 336.279 327.231 338.379 319.331 C 344.879 316.431 354.479 312.131 359.679 309.631 L 362.979 313.631 C 374.079 327.431 387.879 344.531 397.379 353.531 C 397.479 353.631 397.579 353.631 397.779 353.631 C 397.779 353.631 397.879 353.631 397.879 353.631 C 398.079 353.631 398.179 353.531 398.279 353.331 C 401.379 347.631 405.379 342.731 409.879 338.531 C 409.679 338.231 415.979 332.131 419.879 330.131 C 404.879 314.531 368.579 288.831 363.679 288.431 Z" class="g13_1"/>
  <path d="M 242.779 229.531 C 253.679 233.531 260.779 231.131 265.579 226.531 C 269.679 219.831 272.879 212.031 275.979 204.031 C 280.679 192.431 286.379 179.531 294.779 170.731 C 293.179 167.631 291.679 164.831 290.379 162.331 C 289.179 163.231 287.979 164.231 286.879 165.331 C 285.179 166.931 283.579 168.731 282.079 170.431 C 281.179 171.431 280.279 172.431 279.479 173.431 C 276.979 176.431 274.479 179.531 271.979 182.531 C 269.479 185.531 266.979 188.531 264.479 191.531 C 261.979 194.431 259.279 197.231 256.379 199.831 C 253.679 202.331 250.779 204.231 247.079 205.031 C 243.179 206.031 234.979 203.631 231.179 199.031 C 224.879 210.731 231.079 225.231 242.779 229.531 Z" class="g9_1"/>
  <path d="M 244.379 244.731 C 262.279 238.531 268.979 221.731 275.979 204.031 C 280.679 192.431 286.379 179.531 294.779 170.731 C 294.279 169.831 293.879 168.931 293.379 168.131 C 291.079 168.631 288.979 169.831 287.279 171.631 C 285.779 173.031 284.479 174.731 283.279 176.431 C 281.979 178.431 280.779 180.431 279.579 182.531 C 278.979 183.631 278.379 184.831 277.679 185.931 C 275.879 189.431 274.079 192.931 272.279 196.331 C 270.379 199.831 268.679 203.331 266.779 206.731 C 264.879 210.131 262.879 213.431 260.679 216.531 C 258.479 219.531 255.979 221.931 252.579 223.631 C 248.979 225.331 240.479 224.631 235.779 221.031 C 232.979 230.331 237.179 239.731 244.379 244.731 Z" class="g14_1"/>
  <path d="M 128.579 346.031 C 125.279 327.331 124.979 323.231 124.879 319.831 C 124.679 316.831 124.479 313.831 125.179 310.831 C 126.079 307.131 128.979 304.231 132.479 302.931 C 132.979 302.731 133.379 302.631 133.879 302.431 C 135.079 298.131 136.679 294.031 138.679 290.331 C 137.379 289.931 136.079 289.531 134.779 289.331 C 131.679 288.631 128.579 288.531 125.479 289.131 C 122.979 289.731 120.379 290.631 118.179 292.131 C 115.979 293.631 114.379 295.731 113.379 298.331 C 112.579 300.231 112.079 302.231 111.679 304.331 C 111.279 306.731 111.079 309.031 110.879 311.431 C 110.779 312.731 110.679 314.031 110.579 315.331 C 110.279 319.231 110.079 323.131 109.779 327.031 C 109.579 330.931 109.379 334.831 109.079 338.831 C 108.779 342.631 108.179 346.431 107.479 350.231 C 106.679 353.831 105.479 357.031 102.979 359.931 C 100.379 362.931 92.379 365.831 86.579 364.531 C 88.379 377.631 101.979 385.631 113.979 382.231 C 138.079 375.331 130.179 354.731 128.579 346.031 Z" class="g14_1"/>
  <path d="M 398.179 139.131 C 376.679 142.731 352.779 155.331 332.479 175.531 C 327.879 180.131 323.779 184.631 320.079 189.331 C 321.479 189.931 322.679 190.731 323.879 191.831 L 330.779 198.331 C 333.979 194.331 337.579 190.331 341.579 186.431 C 362.279 165.831 386.679 153.231 408.479 149.831 C 405.179 146.131 401.779 142.531 398.179 139.131 Z" class="g15_1"/>
  <path d="M 333.479 188.431 C 330.979 188.431 329.079 186.431 329.079 183.931 C 329.079 181.531 330.979 179.531 333.479 179.531 C 335.879 179.531 337.879 181.531 337.879 183.931 C 337.879 186.431 335.879 188.431 333.479 188.431 M 365.879 58.231 L 366.279 58.431 C 368.679 71.331 372.179 89.131 368.279 100.231 C 367.579 99.731 367.179 99.431 367.179 99.431 C 358.479 93.231 348.479 87.631 337.279 85.831 C 341.779 76.131 352.479 65.831 365.879 58.231 M 183.779 273.531 C 168.979 280.031 157.379 290.831 149.179 305.531 C 142.879 316.631 140.679 331.131 142.479 348.431 C 140.879 343.731 139.679 338.831 139.179 333.931 C 137.279 317.231 139.479 303.431 145.579 292.731 C 153.379 278.931 164.579 268.731 178.679 262.631 C 197.579 254.331 220.579 256.031 240.579 252.231 C 241.679 252.031 242.679 251.831 243.679 251.531 C 224.979 264.631 203.979 264.431 183.779 273.531 M 246.479 128.431 L 246.579 128.131 C 257.479 124.631 272.579 119.531 281.479 123.131 C 279.579 131.131 279.879 139.531 282.979 147.331 C 273.779 152.831 257.879 143.631 246.479 128.431 M 390.879 143.731 C 393.279 143.731 395.279 145.731 395.279 148.131 C 395.279 150.631 393.279 152.631 390.879 152.631 C 388.379 152.631 386.379 150.631 386.379 148.131 C 386.379 145.731 388.379 143.731 390.879 143.731 M 426.479 149.731 C 408.779 132.331 385.979 114.031 374.479 105.031 C 379.779 88.231 374.579 62.331 371.079 43.331 L 370.579 43.031 C 350.379 54.331 334.479 69.731 327.579 84.331 C 326.179 84.531 324.679 84.831 323.279 85.231 C 321.579 81.431 318.879 77.631 315.179 74.231 L 314.979 74.331 C 310.879 78.831 309.179 84.531 309.979 89.531 C 304.179 83.431 293.879 78.731 281.679 77.531 L 281.679 77.731 C 280.679 87.531 284.079 96.431 289.979 102.031 C 285.779 101.131 280.779 101.231 275.579 102.531 L 275.579 102.731 C 276.779 107.431 279.479 111.331 282.979 113.831 C 282.179 115.031 281.479 116.231 280.779 117.531 C 267.279 113.331 245.579 120.631 229.979 125.631 L 229.879 126.031 C 247.479 149.731 272.479 163.731 285.979 153.631 C 287.579 156.731 290.679 162.931 294.779 170.731 C 286.379 179.531 280.679 192.431 275.979 204.031 C 268.279 223.531 260.879 242.031 238.579 246.331 C 233.479 247.331 226.079 248.231 218.279 249.131 C 201.879 251.031 183.279 253.231 173.579 257.631 C 158.679 264.331 146.979 275.331 138.679 290.331 C 132.279 301.931 130.079 317.031 131.979 335.231 C 133.479 348.631 138.779 362.131 146.579 372.431 C 146.479 372.431 146.479 372.531 146.379 372.531 C 149.879 376.031 153.979 379.031 158.479 381.531 C 149.479 392.831 140.379 403.931 129.779 414.231 C 129.679 414.131 129.379 413.931 128.979 413.731 C 132.579 416.231 135.679 418.931 138.479 421.731 C 138.579 421.931 138.679 421.931 138.879 421.931 C 139.079 421.931 139.179 421.931 139.279 421.731 C 145.979 414.831 155.179 403.731 166.679 388.931 C 170.279 390.531 174.279 391.731 178.579 392.531 L 178.579 392.431 C 182.879 392.931 187.279 393.131 191.679 393.131 C 188.879 414.731 188.779 436.531 189.379 458.331 C 191.179 457.931 192.979 457.631 194.779 457.331 C 201.379 456.131 207.379 455.531 213.279 455.531 C 213.579 455.531 213.879 455.231 213.879 454.931 C 214.479 438.931 212.379 412.531 210.579 392.831 C 223.179 391.931 236.379 390.631 242.879 389.731 C 252.479 388.331 262.679 386.331 274.179 383.331 C 290.779 379.031 303.079 373.431 312.679 365.731 C 316.079 361.931 319.179 357.831 321.879 353.431 C 341.979 370.131 360.779 387.831 382.379 402.431 C 385.779 399.831 389.979 397.431 394.079 395.231 C 394.279 395.131 394.379 395.031 394.379 394.831 C 394.479 394.631 394.379 394.531 394.279 394.331 C 385.879 383.031 355.579 359.631 331.479 341.731 C 334.879 334.831 337.679 327.131 339.779 318.831 C 339.879 318.831 339.879 318.831 339.879 318.731 C 340.279 317.131 341.479 313.531 341.979 311.931 C 342.979 308.331 344.079 305.031 345.179 301.831 C 346.779 301.331 348.479 300.931 350.279 300.531 C 351.279 300.231 352.279 300.131 353.279 299.931 C 351.279 300.231 355.379 299.831 355.979 299.731 C 357.979 299.631 359.979 299.731 361.979 299.931 C 362.079 299.931 363.679 300.131 364.179 300.231 C 365.479 300.531 366.779 300.931 368.079 301.331 C 369.079 301.531 370.079 301.931 370.979 302.231 C 371.379 302.431 371.579 302.531 371.779 302.531 C 371.979 302.731 372.279 302.831 372.579 302.931 C 374.679 303.931 376.779 305.231 378.779 306.531 C 379.679 307.131 380.579 307.731 381.379 308.331 C 381.879 308.631 382.479 309.031 382.979 309.431 C 384.879 311.031 386.779 312.731 388.579 314.531 C 395.979 321.631 402.379 329.831 408.679 338.031 C 408.879 338.331 409.179 338.731 409.379 339.031 C 412.979 335.731 416.979 332.931 421.279 330.831 C 421.479 330.731 421.579 330.531 421.579 330.331 C 421.679 330.231 421.579 330.031 421.479 329.831 C 407.479 315.031 369.679 287.631 363.779 287.131 C 363.579 287.131 363.479 287.131 363.279 287.131 C 360.679 287.131 353.579 288.231 343.679 290.031 C 343.779 281.431 342.679 272.431 341.679 263.731 C 340.979 258.131 340.379 252.431 339.979 246.731 C 336.679 243.831 333.679 240.431 331.079 236.531 C 328.179 232.231 324.379 225.731 320.179 218.231 C 326.279 208.331 333.379 199.431 342.479 190.331 C 368.679 164.031 400.379 149.731 426.479 149.731 Z" class="g16_1"/>
  <path d="M 376.079 72.431 C 376.279 77.531 372.479 83.931 369.479 85.631 C 366.679 87.331 363.679 87.831 360.479 87.831 C 357.079 87.831 353.779 87.731 350.479 87.331 C 347.079 86.931 343.679 86.431 340.279 86.031 C 336.879 85.631 333.579 85.131 330.179 84.731 C 329.079 84.631 327.879 84.431 326.779 84.331 C 325.979 84.231 325.179 84.231 324.379 84.131 C 314.279 88.231 307.279 92.931 302.179 97.431 C 307.079 96.931 320.579 96.431 331.679 97.631 C 340.579 98.731 348.479 102.631 353.379 105.231 C 360.279 108.731 376.779 118.131 386.679 98.631 C 391.579 89.031 386.979 76.131 376.079 72.431 Z" class="g10_1"/>
  <path d="M 365.879 82.031 C 366.079 87.131 362.279 93.531 359.279 95.231 C 356.379 96.831 353.479 97.331 350.279 97.431 C 346.879 97.431 343.579 97.231 340.179 96.931 C 336.879 96.531 333.479 96.031 330.079 95.631 C 326.679 95.131 323.279 94.731 319.979 94.331 C 318.779 94.131 317.679 94.031 316.579 93.931 C 315.779 93.831 314.979 93.731 314.179 93.731 C 304.079 97.831 296.979 102.431 291.979 107.031 C 296.879 106.531 310.379 105.931 321.479 107.231 C 330.279 108.231 338.279 112.231 343.179 114.731 C 349.979 118.331 366.579 127.731 376.479 108.231 C 381.379 98.631 376.779 85.631 365.879 82.031 Z" class="g14_1"/>
  <path d="M 352.979 90.131 C 353.179 95.231 349.379 101.631 346.379 103.331 C 343.479 104.931 340.579 105.531 337.379 105.531 C 333.979 105.531 330.679 105.331 327.379 105.031 C 323.979 104.631 320.579 104.131 317.179 103.731 C 313.779 103.331 310.479 102.831 307.079 102.431 C 305.979 102.231 304.779 102.131 303.679 102.031 C 301.679 101.831 299.979 101.531 297.879 101.431 C 297.379 101.431 295.779 101.931 293.379 103.231 C 287.479 107.031 283.279 113.131 282.379 114.731 C 288.679 114.431 299.579 114.331 308.579 115.331 C 317.479 116.431 325.379 120.331 330.279 122.831 C 337.179 126.431 353.679 135.831 363.579 116.331 C 368.479 106.731 363.879 93.731 352.979 90.131 Z" class="g9_1"/>
  <path d="M 315.579 108.631 C 308.279 109.331 299.579 104.131 297.779 97.831 C 296.979 95.131 302.679 82.731 314.779 65.031 C 325.379 49.431 332.679 41.931 334.779 41.331 C 336.879 45.331 332.979 77.031 324.879 96.531 C 321.779 104.031 318.479 108.331 315.679 108.631 Z" class="g7_1"/>
  <path d="M 302.579 101.531 C 301.579 100.231 300.779 98.831 300.279 97.331 C 298.279 90.431 326.079 48.931 335.079 43.231 C 324.279 55.631 305.379 88.731 302.579 101.531 M 335.479 39.931 C 329.879 37.431 293.979 90.131 296.379 98.231 C 298.379 105.131 307.679 110.931 315.779 110.131 C 329.679 108.731 340.679 42.331 335.479 39.931 Z" class="g18_1"/>
  <g fill="#5F2B12"/>
  <g fill="#5F2B12"/>
  <g fill="#5F2B12"/>
  <g fill="#5F2B12"/>
  <g fill="#5F2B12"/>
  <g fill="#5F2B12"/>
  <g fill="#5F2B12"/>
  <g fill="#5F2B12"/>
  <text x="636.079" y="214.131" class="s1_1" style="white-space: pre; font-size: 19.2px;">layer-11</text>
  <g fill="#5F2B12"/>
  <text x="630" y="396" class="s1_1" style="white-space: pre;">(it’s easier if you start with</text>
  <g fill="#5F2B12"/>
  <text x="516.079" y="143.131" class="s1_1" style="white-space: pre; font-size: 19.2px;">the base and work your </text>
  <g fill="#5F2B12"/>
  <text x="550.079" y="166.131" class="s1_1" style="white-space: pre; font-size: 19.2px;">way backwards)</text>
  <defs>
    <path d="M24.4,0l0,105.4l180.3,0l0,910.6l-180.3,0l0,105.4l514.9,0l0,-105.4l-158.9,0l0,-469.1c0,0,7.7,3.1,36.7,27.5c0,0,29,26,38.2,33.7c0,0,21.4,21.3,116.1,122.2c0,0,94.7,100.8,178.7,192.5l82.5,93.2l-169.5,0l0,105.4l528.6,0l0,-105.4l-171.1,0L641.7,614.2L1071,105.4l131.4,0L1202.4,0L673.8,0l0,105.4l166.5,0L508.8,517.9L380.4,412.5l0,-307.1l158.9,0L539.3,0Z" id="f0_1b" transform="scale(0.001,-0.001)"/>
    <path d="M635.6,490.4c0,0,-1.6,108.5,-58.1,174.2c0,0,-56.5,67.2,-137.5,67.2c0,0,-82.5,0,-140.6,-65.7c0,0,-59.5,-67.2,-68.7,-175.7ZM444.6,-19.8c0,0,-91.7,0,-166.5,33.6c0,0,-76.4,35.1,-123.8,93.1c0,0,-48.9,58.1,-73.3,129.9c0,0,-26,73.3,-26,152.8c0,0,0,67.2,15.3,129.8c0,0,15.3,64.2,47.3,117.7c0,0,32.1,55,76.4,96.2c0,0,45.9,41.3,107,64.2c0,0,62.6,24.4,134.4,24.4c0,0,74.9,0,140.6,-27.5c0,0,65.7,-27.5,114.6,-77.9c0,0,50.4,-50.4,79.4,-128.3c0,0,29,-79.4,30.6,-177.2l-576,0l0,-6.1c0,0,0,-64.2,13.7,-119.2c0,0,15.3,-56.5,42.8,-99.3c0,0,27.5,-44.3,73.3,-68.8c0,0,45.9,-25.9,105.5,-25.9c0,0,77.9,0,145.1,47.3c0,0,68.8,48.9,93.2,137.5L785.3,249c0,0,-29,-123.7,-119.2,-195.5c0,0,-90.1,-73.3,-221.5,-73.3Z" id="f0_21" transform="scale(0.001,-0.001)"/>
    <path d="M485.8,62.6c0,0,52,0,91.7,30.6c0,0,39.7,32.1,61.1,82.5c0,0,22.9,51.9,33.6,111.5c0,0,12.2,59.6,12.2,123.8c0,0,0,80.9,-21.3,151.2c0,0,-23,71.8,-68.8,117.7c0,0,-47.4,47.3,-108.5,47.3c0,0,-88.6,0,-143.6,-93.2c0,0,-56.5,-93.2,-56.5,-238.3c0,0,0,-59.6,10.7,-116.1c0,0,12.2,-58.1,33.6,-107c0,0,22.9,-48.8,62.6,-79.4c0,0,41.3,-30.6,93.2,-30.6ZM-38.1,-297.8l0,88.6l172.5,0l0,925.7l-141.9,0l0,82.5l297.8,22.9l0,-151.2c0,0,41.2,73.3,102.3,111.5c0,0,62.7,39.7,142.1,39.7c0,0,93.2,0,166.6,-56.5c0,0,73.3,-56.5,113,-151.2c0,0,41.3,-96.3,41.3,-212.4c0,0,0,-186.4,-91.7,-304c0,0,-93.2,-117.6,-249,-117.6c0,0,-65.7,0,-123.8,30.5c0,0,-58,32.1,-96.2,87.1l0,-305.5l165,0l0,-90.1Z" id="f0_2c" transform="scale(0.001,-0.001)"/>
    <path d="M35.1,0l0,82.5l146.7,0l0,634l-146.7,0l0,82.5l282.7,13.8L337.6,649.3c0,0,13.8,45.8,42.8,79.5c0,0,29,35.1,64.2,53.4c0,0,35.1,19.9,71.8,29.1c0,0,36.7,10.6,73.3,10.6c0,0,26,0,45.9,-1.5c0,0,21.3,-3,48.8,-12.2c0,0,27.5,-10.7,47.4,-26c0,0,21.4,-16.8,41.3,-47.3c0,0,19.8,-30.6,30.5,-71.8c0,0,36.7,82.5,99.3,120.7c0,0,64.2,38.1,140.6,38.1c0,0,21.4,0,41.2,-1.5c0,0,21.4,-3,45.9,-10.7c0,0,25.9,-9.1,47.3,-21.4c0,0,21.4,-12.2,42.8,-33.6c0,0,21.4,-22.9,36.7,-51.9c0,0,15.2,-30.6,24.4,-73.4c0,0,9.2,-44.3,9.2,-97.7l0,-449.2l137.5,0l0,-82.5L1009.9,0l0,82.5l120.7,0l0,447.6c0,0,0,96.3,-38.2,142.1c0,0,-38.2,47.4,-105.5,47.4c0,0,-77.9,0,-122.2,-48.9c0,0,-44.3,-50.4,-44.3,-126.8l0,-461.4l128.4,0L948.8,0L531.7,0l0,82.5l128.3,0l0,447.6c0,0,0,96.3,-38.2,142.1c0,0,-38.2,47.4,-105.4,47.4c0,0,-42.8,0,-74.9,-16.8c0,0,-32.1,-16.8,-50.4,-42.8c0,0,-18.3,-26,-29,-64.2c0,0,-12.2,-38.2,-15.3,-76.4c0,0,-4.6,-38.1,-4.6,-82.5l0,-354.4l128.4,0L470.6,0Z" id="f0_29" transform="scale(0.001,-0.001)"/>
    <path d="M656.9,-21.3l0,168c0,0,-94.7,-166.5,-270.4,-166.5c0,0,-25.9,0,-48.9,3.1c0,0,-24.4,4.6,-55,13.7c0,0,-30.5,9.1,-55,29c0,0,-24.4,21.4,-45.8,51.9c0,0,-21.4,30.6,-33.6,79.5c0,0,-12.2,48.9,-12.2,110l0,449.1l-137.4,0l0,82.5l297.8,0l0,-530.1c0,0,0,-99.3,32.1,-142.1c0,0,32.1,-44.3,97.8,-44.3c0,0,47.3,0,99.3,27.5c0,0,53.4,29,88.6,74.9c0,0,36.6,47.3,36.6,94.7l0,436.9l-135.9,0l0,82.5l297.9,0l0,-715L956.4,67.2L956.4,0L656.9,-21.3Z" id="f0_2h" transform="scale(0.001,-0.001)"/>
    <path d="M27,0l0,82l165,0l0,947l-165,0l0,92l325,0L352,82l161,0L513,0Z" id="f0_28" transform="scale(0.001,-0.001)"/>
    <path d="M378.9,-19.8c0,0,-47.4,0,-88.6,13.8c0,0,-42.8,13.6,-76.4,41.1c0,0,-35.1,29.1,-56.5,76.4c0,0,-21.4,47.4,-21.4,108.5l0,496.5l-149.7,0l0,35.2c0,0,55,16.8,100.8,61.1c0,0,47.3,44.3,74.8,94.7c0,0,29.1,51.9,50.5,100.8c0,0,21.4,48.9,36.6,81c0,0,16.8,32.1,29.1,32.1c0,0,7.6,0,12.2,-6.1c0,0,6.1,-6.1,6.1,-19.9l0,-296.4l294.9,0l0,-84l-294.9,0l0,-499.6c0,0,0,-65.7,29,-97.8c0,0,30.6,-33.6,81,-33.6c0,0,59.6,0,90.1,38.2c0,0,30.6,39.7,30.6,137.5l0,108.5l88.6,0l0,-91.7c0,0,0,-148.2,-51.9,-221.5c0,0,-53.5,-74.8,-184.9,-74.8Z" id="f0_2g" transform="scale(0.001,-0.001)"/>
    <path d="M39.7,0l0,82.5l145.2,0l0,634l-146.7,0l0,82.5l307.1,0l0,-716.5l145.1,0L490.4,0ZM250.6,941.1c0,0,-45.9,0,-78,32.1c0,0,-33.6,32.1,-33.6,76.4c0,0,0,47.3,32.1,79.4c0,0,33.6,33.6,79.5,33.6c0,0,44.3,0,76.3,-33.6c0,0,33.7,-33.6,33.7,-79.4c0,0,0,-44.3,-32.1,-76.4c0,0,-33.6,-32.1,-77.9,-32.1Z" id="f0_25" transform="scale(0.001,-0.001)"/>
    <path d="M113,407l0,101l433,0l0,-101Z" id="f0_h" transform="scale(0.001,-0.001)"/>
    <path d="M304,87.1c0,0,48.9,0,100.9,29c0,0,53.4,29,87,73.3c0,0,35.2,45.9,35.2,87.1l0,158.9c0,0,-48.9,-47.3,-110,-84c0,0,-62.7,-38.2,-102.4,-55c0,0,-39.7,-18.3,-68.7,-48.9c0,0,-29.1,-32.1,-29.1,-77.9c0,0,0,-36.7,21.4,-59.6c0,0,21.4,-22.9,65.7,-22.9ZM264.3,-19.8c0,0,-91.7,0,-148.2,47.3c0,0,-58,48.9,-58,134.4c0,0,0,45.9,19.8,82.5c0,0,19.9,36.7,52,61.2c0,0,33.6,24.4,76.4,47.3c0,0,42.7,22.9,85.5,38.2c0,0,44.3,16.8,85.6,35.2c0,0,42.7,19.8,74.8,38.1c0,0,33.6,19.9,53.5,47.4c0,0,21.4,29,21.4,62.6c0,0,0,85.6,-41.3,126.9c0,0,-42.7,41.2,-117.6,41.2c0,0,-53.5,0,-100.8,-16.8c0,0,-47.4,-16.8,-74.9,-45.8c0,0,48.9,0,76.4,-24.5c0,0,27.5,-26,27.5,-61.1c0,0,0,-47.4,-30.6,-76.4c0,0,-30.5,-30.5,-73.3,-30.5c0,0,-42.8,0,-74.9,30.5c0,0,-33.6,32.1,-33.6,90.2c0,0,0,30.5,19.9,65.7c0,0,19.9,36.6,56.5,70.2c0,0,36.7,33.6,99.3,55c0,0,64.2,22.9,140.6,22.9c0,0,61.1,0,110,-13.7c0,0,50.4,-13.8,90.1,-44.3c0,0,41.3,-30.6,64.2,-84c0,0,22.9,-53.5,22.9,-126.8l0,-342.3c0,0,0,-29,6.1,-55c0,0,7.7,-27.5,27.5,-48.9c0,0,21.4,-21.3,53.5,-21.3c0,0,94.7,0,94.7,132.9l0,110l82.5,0l0,-96.3c0,0,0,-73.3,-15.3,-125.3c0,0,-16.8,-51.9,-45.8,-77.9C890.7,29,860.1,1.5,825,-9.1c0,0,-35.1,-10.7,-82.5,-10.7c0,0,-48.9,0,-91.7,18.4c0,0,-44.3,19.7,-74.8,62.5c0,0,-32.1,42.8,-36.7,103.9c0,0,-32.1,-81,-108.5,-132.9c0,0,-77.9,-51.9,-166.5,-51.9Z" id="f0_1x" transform="scale(0.001,-0.001)"/>
    <path d="M267.4,-348.2c0,0,-102.4,0,-166.6,47.3c0,0,-65.7,47.4,-65.7,119.2c0,0,0,53.5,33.7,85.5c0,0,35.1,33.7,94.7,33.7c0,0,47.3,0,70.3,-30.6c0,0,22.9,-32.1,22.9,-76.4c0,0,0,-27.5,-16.8,-48.9c0,0,-18.4,-21.4,-45.9,-35.1c0,0,32.1,-15.3,50.4,-15.3c0,0,65.7,0,110,58.1c0,0,45.9,58,68.8,194L126.8,716.5l-146.6,0l0,82.5L440,799l0,-82.5l-136,0L519.4,129.9L704.3,716.5l-123.7,0l0,82.5L964,799l0,-82.5l-128.3,0L579,-1.4c0,0,-65.7,-192.5,-137.5,-268.9c0,0,-73.3,-77.9,-174.1,-77.9Z" id="f0_2l" transform="scale(0.001,-0.001)"/>
    <path d="M35.1,0l0,82.5l146.7,0l0,634l-146.7,0l0,82.5l282.7,13.8L339.2,637.1c0,0,9.1,30.5,24.4,61.1c0,0,16.8,30.6,42.8,59.6c0,0,26,29,64.2,45.8c0,0,38.2,18.3,82.5,18.3c0,0,61.1,0,103.8,-33.6c0,0,44.4,-33.6,44.4,-94.7c0,0,0,-58,-33.7,-90.1c0,0,-33.6,-32.1,-80.9,-32.1c0,0,-42.8,0,-73.4,26c0,0,-32,27.5,-32,71.8c0,0,0,16.8,7.6,32.1c0,0,7.6,16.8,15.3,25.9l7.6,7.7c0,0,-44.3,0,-77.9,-27.5c0,0,-35.1,-27.5,-53.5,-73.4c0,0,-19.8,-47.3,-29,-99.3c0,0,-9.2,-51.9,-9.2,-106.9l0,-345.3l166.6,0L508.8,0Z" id="f0_2e" transform="scale(0.001,-0.001)"/>
    <path d="M418.6,73.3c0,0,91.7,0,151.3,94.8c0,0,59.5,94.7,59.5,241.3c0,0,0,59.6,-12.2,114.6c0,0,-12.2,56.6,-35.1,105.4c0,0,-24.5,48.9,-64.2,78c0,0,-41.2,29,-93.2,29c0,0,-50.4,0,-88.6,-29c0,0,-39.7,-30.6,-61.1,-81c0,0,-22.9,-50.4,-33.6,-108.5c0,0,-12.2,-58,-12.2,-122.2c0,0,0,-82.5,19.8,-154.3c0,0,19.9,-71.8,64.2,-119.2c0,0,44.3,-48.9,105.4,-48.9ZM386.5,-19.8c0,0,-148.2,0,-236.8,114.5c0,0,-90.1,116.1,-90.1,305.6c0,0,0,189.4,90.1,305.5c0,0,91.7,116.1,249.1,116.1c0,0,61.1,0,120.6,-32c0,0,61.2,-32.1,97.8,-88.6l0,328.4l-174.1,0l0,91.7l334.5,0l0,-1038.9l136,0L913.6,0L647.8,0l-29,126.8c0,0,-38.2,-71.8,-102.4,-108.5c0,0,-64.2,-38.1,-129.9,-38.1Z" id="f0_20" transform="scale(0.001,-0.001)"/>
    <path d="M381.9,-19.8c0,0,-58,0,-111.5,10.7c0,0,-55,10.6,-103.9,33.5c0,0,-48.9,23,-77.9,62.7c0,0,-30.5,41.2,-30.5,93.2c0,0,0,48.9,30.5,79.4c0,0,30.6,32.1,71.8,32.1c0,0,41.3,0,70.3,-22.9c0,0,30.6,-22.9,30.6,-67.2c0,0,0,-38.2,-21.4,-62.7c0,0,-23,-25.9,-52,-25.9c0,0,29,-19.9,77.9,-33.7c0,0,48.9,-15.2,97.8,-15.2c0,0,56.5,0,100.8,10.7c0,0,45.9,12.2,78,42.7c0,0,32,30.6,32,78c0,0,0,36.6,-21.3,64.1c0,0,-21.4,27.5,-56.6,44.3c0,0,-36.6,16.8,-82.5,32.1c0,0,-45.8,16.8,-93.2,29c0,0,-48.9,12.3,-94.7,32.1c0,0,-45.8,19.9,-81,42.8c0,0,-36.6,24.4,-58,62.6c0,0,-22.9,39.8,-22.9,90.2c0,0,0,51.9,21.4,91.6c0,0,22.9,41.3,56.5,65.7c0,0,33.6,24.5,76.4,41.3c0,0,44.3,16.8,84,22.9c0,0,39.7,7.6,76.4,7.6c0,0,53.5,0,106.9,-12.2c0,0,55,-12.2,102.4,-33.6c0,0,47.4,-22.9,77.9,-58c0,0,30.6,-36.7,30.6,-79.5c0,0,0,-50.4,-29.1,-81c0,0,-29,-30.5,-67.2,-30.5c0,0,-42.8,0,-71.8,24.4c0,0,-30.5,26,-30.5,71.8c0,0,0,21.4,10.7,38.2c0,0,10.6,18.4,19.8,26c0,0,9.2,7.6,26,18.3c0,0,-74.9,35.2,-168.1,35.2c0,0,-76.4,0,-128.3,-33.6c0,0,-53.5,-33.6,-53.5,-94.8c0,0,0,-29,21.4,-50.4c0,0,22.9,-22.9,58.1,-36.6c0,0,36.6,-15.3,82.5,-30.6c0,0,45.8,-15.3,93.2,-27.5c0,0,48.9,-13.7,94.7,-35.1c0,0,47.3,-21.4,82.5,-47.4c0,0,36.7,-27.5,58,-68.7c0,0,23,-42.8,23,-96.3c0,0,0,-55,-19.9,-97.8c0,0,-19.9,-42.8,-51.9,-68.7c0,0,-32.1,-26,-76.4,-42.8c0,0,-44.3,-16.7,-90.2,-22.8c0,0,-45.8,-7.7,-97.8,-7.7Z" id="f0_2f" transform="scale(0.001,-0.001)"/>
    <path d="M32.1,0l0,82.5l137.5,0l0,947.2l-145.2,0l0,91.7l305.6,0l0,-462.9c0,0,29,58,74.9,96.2c0,0,47.3,38.2,93.2,52c0,0,45.8,15.2,94.7,15.2c0,0,30.5,0,58,-4.5c0,0,29.1,-4.6,64.2,-21.4c0,0,36.7,-18.4,62.6,-45.9c0,0,26,-29,42.8,-84c0,0,18.4,-55,18.4,-126.8l0,-456.8l160.4,0L999.2,0L534.7,0l0,82.5l143.6,0l0,461.4c0,0,0,87.1,-32,129.9c0,0,-33.7,42.7,-85.6,42.7c0,0,-38.2,0,-77.9,-21.4c0,0,-41.3,-21.3,-74.9,-56.5c0,0,-33.6,-35.1,-55,-85.5c0,0,-22.9,-52,-22.9,-108.5L330,82.5l146.7,0L476.7,0Z" id="f0_24" transform="scale(0.001,-0.001)"/>
    <path d="M94.7,0L81,117.6l1.5,0L557.6,716.5l-346.8,0l0,-206.2l-122.2,0l0,288.7l611.1,0L722.6,689L241.4,82.5l389.6,0l0,229.2l122.2,0L753.2,0Z" id="f0_2m" transform="scale(0.001,-0.001)"/>
    <path d="M444.6,73.3c0,0,100.8,0,158.9,87.1c0,0,58,87.1,58,229.2c0,0,0,100.8,-21.4,175.7c0,0,-22.9,74.8,-71.8,120.7c0,0,-50.4,45.8,-123.7,45.8c0,0,-74.9,0,-125.3,-45.8c0,0,-50.4,-45.9,-71.8,-120.7c0,0,-22.9,-74.9,-22.9,-175.7c0,0,0,-142.1,59.6,-229.2c0,0,59.6,-87.1,160.4,-87.1Zm0,-93.1c0,0,-178.8,0,-284.2,117.6C160.4,97.8,55,216.9,55,400.3c0,0,0,119.1,44.3,213.9c0,0,45.8,94.7,134.5,151.2c0,0,90.1,56.5,210.8,56.5c0,0,88.6,0,161.9,-32c0,0,74.9,-33.6,123.8,-90.2c0,0,48.9,-56.5,74.8,-132.9c0,0,26,-77.9,26,-166.5c0,0,0,-119.2,-44.3,-213.9c0,0,-45.8,-94.7,-134.4,-149.7c0,0,-88.6,-56.5,-207.8,-56.5Z" id="f0_2b" transform="scale(0.001,-0.001)"/>
    <path d="M394.2,-28.9c0,0,-35.2,0,-56.6,22.9c0,0,-21.3,24.3,-38.2,82.4L129.9,716.5l-125.3,0l0,82.5l418.6,0l0,-82.5l-119.2,0L427.8,161.9L603.5,713.5l134.4,0l162,-554.6l140.5,557.6l-125.3,0l0,82.5l343.8,0l0,-82.5l-107,0L983.9,81c0,0,-16.8,-64.2,-36.7,-87c0,0,-21.4,-22.9,-61.1,-22.9c0,0,-38.2,0,-59.6,22.9c0,0,-22.9,24.3,-38.2,80.9L656.9,557.6L502.6,82.5c0,0,-21.3,-62.6,-42.7,-87c0,0,-23,-24.4,-65.7,-24.4Z" id="f0_2j" transform="scale(0.001,-0.001)"/>
    <path d="M441.5,-19.8c0,0,-80.9,0,-151.2,27.4c0,0,-70.3,29.1,-122.2,79.5c0,0,-53.5,51.9,-82.5,128.3c0,0,-30.6,77.9,-30.6,168.1c0,0,0,87.1,26,165c0,0,25.9,77.9,74.8,139c0,0,48.9,61.1,126.8,97.8c0,0,79.5,36.6,175.7,36.6c0,0,55,0,108.5,-15.2c0,0,55,-16.8,102.4,-47.4c0,0,47.3,-30.5,76.4,-82.5c0,0,29,-51.9,29,-116.1c0,0,0,-45.8,-30.6,-82.5c0,0,-30.5,-38.2,-85.5,-38.2c0,0,-48.9,0,-82.5,27.5c0,0,-33.6,29,-33.6,76.4c0,0,0,48.9,33.6,74.9c0,0,35.1,27.5,82.5,27.5c0,0,-24.5,39.7,-70.3,64.1c0,0,-45.8,26,-103.9,26c0,0,-64.2,0,-114.6,-27.5c0,0,-51.9,-29,-82.5,-76.4c0,0,-32.1,-47.4,-47.3,-103.9c0,0,-16.8,-58,-16.8,-119.2c0,0,0,-145.1,65.7,-227.6c0,0,67.2,-82.5,186.3,-82.5c0,0,44.3,0,85.6,18.3c0,0,42.8,19.9,71.8,47.4c0,0,29,29,47.4,58.1c0,0,19.8,29,27.5,53.4L792.9,249c0,0,-29,-122.2,-120.7,-195.5c0,0,-91.6,-73.3,-230.7,-73.3Z" id="f0_1z" transform="scale(0.001,-0.001)"/>
    <path d="M325.4,-13.7c0,0,-44.3,0,-76.4,30.5c0,0,-32.1,32.1,-32.1,77.9c0,0,0,45.9,32.1,77.9c0,0,32.1,32.1,76.4,32.1c0,0,45.9,0,79.5,-32.1c0,0,33.6,-33.6,33.6,-77.9c0,0,0,-45.8,-33.6,-76.4c0,0,-33.6,-32,-79.5,-32Zm-29,349.8l-70.3,767l194,0l-70.2,-767Z" id="f0_5" transform="scale(0.001,-0.001)"/>
    <path d="M21,0l0,105l182,0l0,910l-182,0l0,106l529,0l0,-106l-172,0l0,-910l172,0L550,0Z" id="f0_19" transform="scale(0.001,-0.001)"/>
    <path d="M36.7,0l0,82.5l146.6,0l0,634l-146.6,0l0,82.5l146.6,0c0,0,0,197.1,64.2,288.8c0,0,64.2,91.6,216.9,91.6c0,0,120.7,0,188,-47.3c0,0,67.2,-48.9,67.2,-113.1c0,0,0,-58,-32.1,-93.2c0,0,-32.1,-35.1,-81,-35.1c0,0,-39.7,0,-68.7,29c0,0,-30.6,29.1,-30.6,71.8c0,0,0,27.5,21.4,55c0,0,22.9,27.5,61.1,36.7c0,0,-16.8,16.8,-45.8,24.4c0,0,-30.6,9.2,-58.1,9.2c0,0,-68.7,0,-106.9,-45.8c0,0,-39.7,-45.9,-39.7,-145.2l0,-126.8l242.9,0L576,716.5l-232.2,0l0,-634l186.3,0L530.1,0Z" id="f0_22" transform="scale(0.001,-0.001)"/>
    <path d="M473.6,-28.9c0,0,-39.7,1.5,-65.7,25.9c0,0,-27.5,25.9,-48.9,84L126.8,716.5l-135.9,0l0,82.5L440,799l0,-82.5l-136,0L501.1,117.6l191,598.9l-126.8,0l0,82.5l381.9,0l0,-82.5l-128.3,0L598.9,85.6c0,0,-22.9,-61.2,-50.4,-87c0,0,-27.5,-27.5,-71.8,-27.5Z" id="f0_2i" transform="scale(0.001,-0.001)"/>
    <path d="M35.1,0l0,82.5l146.7,0l0,634l-146.7,0l0,82.5l282.7,13.8L337.6,649.3c0,0,36.7,84,111.6,128.3c0,0,76.4,44.3,154.3,44.3c0,0,21.4,0,41.2,-1.5c0,0,21.4,-3,45.9,-10.7c0,0,25.9,-9.1,47.3,-21.4c0,0,21.4,-12.2,42.8,-33.6c0,0,21.4,-22.9,35.1,-51.9c0,0,15.3,-30.6,24.5,-73.4c0,0,10.7,-44.3,10.7,-97.7L851,82.5l152.8,0l0,-82.5L553.1,0l0,82.5l137.5,0l0,447.6c0,0,0,96.3,-38.2,142.1c0,0,-38.2,47.4,-105.5,47.4c0,0,-42.7,0,-77.9,-15.3c0,0,-35.1,-16.8,-58,-44.3c0,0,-24.5,-27.5,-39.7,-64.2c0,0,-15.3,-36.6,-21.4,-76.4c0,0,-7.7,-39.7,-7.7,-82.5l0,-354.4l134.5,0L476.7,0Z" id="f0_2a" transform="scale(0.001,-0.001)"/>
    <path d="M420.1,62.6c0,0,50.5,0,90.2,29.1c0,0,39.7,30.5,62.6,76.4c0,0,22.9,47.3,33.6,97.7c0,0,12.3,52,12.3,100.9c0,0,0,100.8,-23,183.3c0,0,-24.4,84,-68.7,132.9c0,0,-45.8,48.9,-107,48.9c0,0,-61.1,0,-106.9,-47.4c0,0,-45.8,-48.8,-67.2,-119.1c0,0,-21.4,-71.8,-21.4,-154.3c0,0,0,-65.7,10.7,-123.8c0,0,12.2,-59.6,33.6,-110c0,0,21.4,-51.9,61.1,-82.5c0,0,39.7,-32.1,90.1,-32.1Zm36.7,-358.9l0,91.7l162,0l0,302.4c0,0,-38.2,-55,-96.3,-85.6c0,0,-58.1,-32,-123.7,-32c0,0,-155.9,0,-249.1,117.6c0,0,-94.7,117.6,-94.7,304c0,0,0,117.6,41.3,212.4c0,0,42.7,96.2,119.1,151.2c0,0,76.4,56.5,174.2,56.5c0,0,82.5,0,154.3,-41.2c0,0,73.3,-41.3,110,-126.8L710.4,799l70.3,0l0,-1003.6l152.8,0l0,-91.7Z" id="f0_2d" transform="scale(0.001,-0.001)"/>
    <path d="M458.3,68.8c0,0,61.1,0,107,47.3c0,0,45.8,48.9,67.2,120.7c0,0,22.9,71.8,22.9,152.8c0,0,0,65.7,-10.7,123.7c0,0,-10.7,59.6,-32.1,110c0,0,-22.9,52,-62.6,82.5c0,0,-39.7,30.6,-91.7,30.6c0,0,-48.9,0,-88.6,-29c0,0,-39.7,-29.1,-62.6,-74.9c0,0,-22.9,-47.4,-35.2,-97.8c0,0,-12.2,-50.4,-12.2,-99.3c0,0,0,-102.3,22.9,-184.8c0,0,24.5,-82.5,70.3,-131.4c0,0,45.9,-50.4,105.4,-50.4Zm30.6,-88.6c0,0,-81,0,-152.8,41.2c0,0,-73.3,41.2,-110,126.8L168.1,0L99.3,0l0,1029.7l-152.7,0l0,91.7l313.1,0l0,-420.1c0,0,38.2,56.5,96.3,88.6c0,0,59.6,32,125.3,32c0,0,155.8,0,250.5,-117.6c0,0,94.7,-119.2,94.7,-304c0,0,0,-117.7,-42.7,-213.9c0,0,-42.8,-96.3,-119.2,-151.3c0,0,-77.9,-54.9,-175.7,-54.9Z" id="f0_1y" transform="scale(0.001,-0.001)"/>
    <path d="M212.4,-187.8l-38.2,59.6c0,0,36.6,21.4,65.7,55c0,0,30.5,33.6,30.5,62.6c0,0,0,10.6,-6.1,18.2c0,0,-29,-15.1,-62.6,-15.1c0,0,-38.2,0,-68.8,28.9c0,0,-30.5,30.5,-30.5,68.7c0,0,0,41.3,35.1,73.4c0,0,36.7,32.1,77.9,32.1c0,0,52,0,94.7,-39.8c0,0,44.3,-41.2,44.3,-116.1c0,0,0,-54.9,-32,-114.5c0,0,-33.6,-59.5,-100.9,-106.9c0,0,-4.6,-1.5,-9.1,-6.1Z" id="f0_g" transform="scale(0.001,-0.001)"/>
    <path d="M528.6,328.5c0,0,64.2,0,126.8,65.7c0,0,64.2,67.2,77.9,128.3c0,0,0,1.5,9.2,50.4c0,0,9.2,50.4,16.8,102.4c0,0,9.2,51.9,9.2,56.5c0,0,-3.1,3.1,-7.7,9.2c0,0,-6.1,7.6,-21.4,24.4c0,0,-16.8,18.4,-30.5,30.6c0,0,-15.3,13.7,-35.1,24.4c0,0,-19.9,10.7,-35.2,10.7c0,0,-55,0,-106.9,-55c0,0,-53.5,-56.5,-85.6,-137.5c0,0,-32.1,-81,-32.1,-154.3c0,0,0,-77.9,36.7,-116.1c0,0,36.7,-39.7,77.9,-39.7ZM608.1,-19.8c0,0,-136,0,-247.5,41.2c0,0,-111.6,41.2,-183.4,116.1c0,0,-73.3,74.9,-111.5,174.2c0,0,-38.2,99.3,-38.2,213.9c0,0,0,126.8,51.9,241.3c0,0,52,116.2,139.1,198.7c0,0,87.1,82.5,203.2,129.8c0,0,117.6,48.9,241.4,48.9c0,0,106.9,0,197,-30.5c0,0,90.2,-32.1,151.3,-84.1c0,0,62.6,-53.4,105.4,-123.7c0,0,44.3,-70.3,64.2,-145.2c0,0,21.4,-76.4,21.4,-154.3c0,0,0,-74.8,-19.9,-143.6c0,0,-21.4,-68.7,-58.1,-120.7c0,0,-36.6,-53.4,-94.7,-84c0,0,-58,-32.1,-129.8,-32.1c0,0,-78,0,-119.2,47.4c0,0,-41.3,48.9,-47.4,148.2c0,0,-15.2,-35.2,-29,-59.6c0,0,-15.3,-26,-36.7,-50.4c0,0,-21.3,-24.5,-45.8,-38.2c0,0,-26,-15.3,-61.1,-24.5c0,0,-36.7,-9.1,-82.5,-9.1c0,0,-35.1,0,-67.2,12.2c0,0,-33.6,13.7,-62.7,39.7c0,0,-30.5,26,-47.3,70.3c0,0,-16.8,45.8,-16.8,105.4c0,0,0,74.9,29,154.3c0,0,29,81,77.9,146.7c0,0,48.9,65.7,116.1,106.9c0,0,68.8,42.8,140.6,42.8c0,0,18.3,0,55,-27.5c0,0,38.2,-27.5,67.2,-56.5l27.5,-27.5c0,0,21.4,56.5,27.5,74.8l119.2,0c0,0,-87.1,-461.4,-87.1,-496.5c0,0,0,-90.1,62.6,-90.1c0,0,16.8,0,39.7,10.7c0,0,23,12.2,45.9,38.2c0,0,24.4,25.9,44.3,61.1c0,0,21.4,35.1,33.6,88.6c0,0,13.7,53.4,13.7,114.6c0,0,0,123.7,-55,226.1c0,0,-55,103.9,-152.7,163.4c0,0,-99.3,61.2,-221.6,61.2c0,0,-96.2,0,-183.3,-32.1c0,0,-87.1,-32.1,-149.7,-85.6c0,0,-62.7,-55,-107,-125.3c0,0,-45.8,-71.8,-68.7,-149.7c0,0,-22.9,-79.4,-22.9,-158.9c0,0,0,-90.1,29,-168c0,0,29,-77.9,87.1,-140.6c0,0,58,-62.6,152.8,-99.3c0,0,96.2,-36.7,218.4,-36.7c0,0,79.5,0,175.7,26c0,0,96.3,27.5,158.9,70.3c0,0,47.4,-56.5,47.4,-61.1c0,0,-74.9,-53.5,-187.9,-85.6c0,0,-113.1,-32,-209.3,-32Z" id="f0_10" transform="scale(0.001,-0.001)"/>
    <path d="M841.8,-13.7c0,0,-79.4,0,-136,39.7c0,0,-58,41.2,-103.9,122.2L450.7,406.4L326.9,311.7l0,-229.2l126.9,0L453.8,0L16.8,0l0,82.5l149.7,0l0,947.2l-149.7,0l0,91.7l310.1,0l0,-696.7L638.6,716.5l-139,0l0,82.5l447.6,0l0,-82.5l-143.6,0L545.4,469c0,0,22.9,-32.1,59.6,-90.1c0,0,36.7,-59.6,64.2,-100.8c0,0,27.5,-42.8,61.1,-85.6c0,0,35.1,-44.3,71.8,-67.2c0,0,38.2,-24.5,74.8,-24.5c0,0,42.8,0,78,16.8L976.3,16.8c0,0,-36.7,-19.8,-65.7,-24.3c0,0,-29.1,-6.2,-68.8,-6.2Z" id="f0_27" transform="scale(0.001,-0.001)"/>
    <path d="M218.5,-13.7c0,0,-45.9,0,-77.9,30.5c0,0,-32.1,32.1,-32.1,77.9c0,0,0,45.9,32.1,77.9c0,0,32,32.1,77.9,32.1c0,0,44.3,0,77.9,-32.1c0,0,33.6,-33.6,33.6,-77.9c0,0,0,-45.8,-33.6,-76.4c0,0,-33.6,-32,-77.9,-32Z" id="f0_i" transform="scale(0.001,-0.001)"/>
    <path d="M276,0l0,105l173,0l0,910l-286,0l0,-348L25,667l0,454l1020,0l0,-454l-141,0l0,348l-278,0l0,-910l177,0L803,0Z" id="f0_1k" transform="scale(0.001,-0.001)"/>
    <path d="M592.8,-19.8c0,0,-116.1,0,-215.4,47.3c0,0,-100.9,47.4,-169.6,126.8c0,0,-68.8,81,-107,189.5c0,0,-38.2,108.4,-38.2,227.6c0,0,0,123.7,38.2,229.2c0,0,39.8,106.9,110,181.8c0,0,71.8,76.4,174.2,119.1c0,0,102.4,42.8,223.1,42.8c0,0,102.3,0,195.5,-42.8c0,0,94.7,-42.7,155.8,-122.2c0,0,61.2,-81,61.2,-180.3c0,0,0,-50.4,-39.8,-91.6c0,0,-39.7,-42.8,-105.4,-42.8c0,0,-56.5,0,-91.6,32.1c0,0,-35.2,33.6,-35.2,90.1c0,0,0,58.1,42.8,88.6c0,0,44.3,32.1,90.1,32.1c0,0,-36.6,55,-108.4,93.2c0,0,-71.8,39.7,-166.6,39.7c0,0,-151.2,0,-249,-128.3c0,0,-99.3,-128.3,-99.3,-342.2c0,0,0,-82.5,26,-162c0,0,27.5,-81,73.3,-145.1c0,0,47.4,-65.7,120.7,-105.4c0,0,73.3,-39.8,160.4,-39.8c0,0,65.7,0,123.8,24.5c0,0,58,24.4,97.7,64.2c0,0,39.8,39.7,65.7,85.5c0,0,27.5,47.4,39.8,96.3l100.8,-47.4c0,0,-39.7,-172.6,-160.4,-265.8c0,0,-120.7,-94.7,-313.2,-94.7Z" id="f1_13" transform="scale(0.001,-0.001)"/>
    <path d="M444.6,73.3c0,0,100.8,0,158.9,87.1c0,0,58,87.1,58,229.2c0,0,0,100.8,-21.4,175.7c0,0,-22.9,74.8,-71.8,120.7c0,0,-50.4,45.8,-123.7,45.8c0,0,-74.9,0,-125.3,-45.8c0,0,-50.4,-45.9,-71.8,-120.7c0,0,-22.9,-74.9,-22.9,-175.7c0,0,0,-142.1,59.6,-229.2c0,0,59.6,-87.1,160.4,-87.1Zm0,-93.1c0,0,-178.8,0,-284.2,117.6C160.4,97.8,55,216.9,55,400.3c0,0,0,119.1,44.3,213.9c0,0,45.8,94.7,134.5,151.2c0,0,90.1,56.5,210.8,56.5c0,0,88.6,0,161.9,-32c0,0,74.9,-33.6,123.8,-90.2c0,0,48.9,-56.5,74.8,-132.9c0,0,26,-77.9,26,-166.5c0,0,0,-119.2,-44.3,-213.9c0,0,-45.8,-94.7,-134.4,-149.7c0,0,-88.6,-56.5,-207.8,-56.5Z" id="f1_2b" transform="scale(0.001,-0.001)"/>
    <path d="M485.8,62.6c0,0,52,0,91.7,30.6c0,0,39.7,32.1,61.1,82.5c0,0,22.9,51.9,33.6,111.5c0,0,12.2,59.6,12.2,123.8c0,0,0,80.9,-21.3,151.2c0,0,-23,71.8,-68.8,117.7c0,0,-47.4,47.3,-108.5,47.3c0,0,-88.6,0,-143.6,-93.2c0,0,-56.5,-93.2,-56.5,-238.3c0,0,0,-59.6,10.7,-116.1c0,0,12.2,-58.1,33.6,-107c0,0,22.9,-48.8,62.6,-79.4c0,0,41.3,-30.6,93.2,-30.6ZM-38.1,-297.8l0,88.6l172.5,0l0,925.7l-141.9,0l0,82.5l297.8,22.9l0,-151.2c0,0,41.2,73.3,102.3,111.5c0,0,62.7,39.7,142.1,39.7c0,0,93.2,0,166.6,-56.5c0,0,73.3,-56.5,113,-151.2c0,0,41.3,-96.3,41.3,-212.4c0,0,0,-186.4,-91.7,-304c0,0,-93.2,-117.6,-249,-117.6c0,0,-65.7,0,-123.8,30.5c0,0,-58,32.1,-96.2,87.1l0,-305.5l165,0l0,-90.1Z" id="f1_2c" transform="scale(0.001,-0.001)"/>
    <path d="M267.4,-348.2c0,0,-102.4,0,-166.6,47.3c0,0,-65.7,47.4,-65.7,119.2c0,0,0,53.5,33.7,85.5c0,0,35.1,33.7,94.7,33.7c0,0,47.3,0,70.3,-30.6c0,0,22.9,-32.1,22.9,-76.4c0,0,0,-27.5,-16.8,-48.9c0,0,-18.4,-21.4,-45.9,-35.1c0,0,32.1,-15.3,50.4,-15.3c0,0,65.7,0,110,58.1c0,0,45.9,58,68.8,194L126.8,716.5l-146.6,0l0,82.5L440,799l0,-82.5l-136,0L519.4,129.9L704.3,716.5l-123.7,0l0,82.5L964,799l0,-82.5l-128.3,0L579,-1.4c0,0,-65.7,-192.5,-137.5,-268.9c0,0,-73.3,-77.9,-174.1,-77.9Z" id="f1_2l" transform="scale(0.001,-0.001)"/>
    <path d="M35.1,0l0,82.5l146.7,0l0,634l-146.7,0l0,82.5l282.7,13.8L339.2,637.1c0,0,9.1,30.5,24.4,61.1c0,0,16.8,30.6,42.8,59.6c0,0,26,29,64.2,45.8c0,0,38.2,18.3,82.5,18.3c0,0,61.1,0,103.8,-33.6c0,0,44.4,-33.6,44.4,-94.7c0,0,0,-58,-33.7,-90.1c0,0,-33.6,-32.1,-80.9,-32.1c0,0,-42.8,0,-73.4,26c0,0,-32,27.5,-32,71.8c0,0,0,16.8,7.6,32.1c0,0,7.6,16.8,15.3,25.9l7.6,7.7c0,0,-44.3,0,-77.9,-27.5c0,0,-35.1,-27.5,-53.5,-73.4c0,0,-19.8,-47.3,-29,-99.3c0,0,-9.2,-51.9,-9.2,-106.9l0,-345.3l166.6,0L508.8,0Z" id="f1_2e" transform="scale(0.001,-0.001)"/>
    <path d="M39.7,0l0,82.5l145.2,0l0,634l-146.7,0l0,82.5l307.1,0l0,-716.5l145.1,0L490.4,0ZM250.6,941.1c0,0,-45.9,0,-78,32.1c0,0,-33.6,32.1,-33.6,76.4c0,0,0,47.3,32.1,79.4c0,0,33.6,33.6,79.5,33.6c0,0,44.3,0,76.3,-33.6c0,0,33.7,-33.6,33.7,-79.4c0,0,0,-44.3,-32.1,-76.4c0,0,-33.6,-32.1,-77.9,-32.1Z" id="f1_25" transform="scale(0.001,-0.001)"/>
    <path d="M415.6,73.3c0,0,67.2,0,114.5,45.9c0,0,48.9,47.3,70.3,114.6c0,0,22.9,68.7,22.9,146.6c0,0,0,152.8,-55,247.5c0,0,-56.5,94.7,-149.7,94.7c0,0,-61.1,0,-105.4,-45.8c0,0,-45.8,-45.8,-67.2,-114.6c0,0,-22.9,-70.3,-22.9,-151.2c0,0,0,-64.2,10.7,-120.7c0,0,10.6,-58.1,32,-108.5c0,0,21.4,-50.4,59.6,-79.4c0,0,39.7,-29.1,90.2,-29.1Zm-4.6,-472c0,0,-74.9,0,-136,18.4c0,0,-61.1,18.3,-102.4,59.6c0,0,-42.7,41.2,-42.7,100.8c0,0,0,58.1,36.6,87.1c0,0,38.2,30.5,88.6,30.5c0,0,42.8,0,71.8,-29c0,0,29.1,-30.5,29.1,-76.4c0,0,0,-29,-19.9,-58c0,0,-19.8,-29.1,-42.8,-38.2c0,0,48.9,-15.3,91.7,-15.3c0,0,117.6,0,174.2,88.6c0,0,58,88.6,58,247.4l0,132.9c0,0,-22.9,-71.8,-87.1,-120.7c0,0,-64.1,-48.8,-146.6,-48.8c0,0,-62.7,0,-116.1,22.9c0,0,-53.5,22.9,-90.2,62.6c0,0,-38.2,39.7,-64.1,93.2c0,0,-27.5,53.5,-39.8,113c0,0,-12.2,61.2,-12.2,123.8c0,0,0,81,19.9,155.8c0,0,21.4,74.9,61.1,136c0,0,39.7,61.1,103.9,97.8c0,0,64.1,36.6,142.1,36.6c0,0,68.7,0,137.5,-44.3c0,0,68.7,-45.8,91.6,-120.7L635.6,799l250.5,0l0,-88.6l-108.5,0l0,-673.7c0,0,0,-67.2,-12.2,-129.8c0,0,-12.2,-62.6,-39.7,-119.2c0,0,-27.5,-56.5,-68.8,-96.2c0,0,-42.7,-41.3,-105.4,-65.7c0,0,-64.1,-24.5,-140.5,-24.5Z" id="f1_23" transform="scale(0.001,-0.001)"/>
    <path d="M32.1,0l0,82.5l137.5,0l0,947.2l-145.2,0l0,91.7l305.6,0l0,-462.9c0,0,29,58,74.9,96.2c0,0,47.3,38.2,93.2,52c0,0,45.8,15.2,94.7,15.2c0,0,30.5,0,58,-4.5c0,0,29.1,-4.6,64.2,-21.4c0,0,36.7,-18.4,62.6,-45.9c0,0,26,-29,42.8,-84c0,0,18.4,-55,18.4,-126.8l0,-456.8l160.4,0L999.2,0L534.7,0l0,82.5l143.6,0l0,461.4c0,0,0,87.1,-32,129.9c0,0,-33.7,42.7,-85.6,42.7c0,0,-38.2,0,-77.9,-21.4c0,0,-41.3,-21.3,-74.9,-56.5c0,0,-33.6,-35.1,-55,-85.5c0,0,-22.9,-52,-22.9,-108.5L330,82.5l146.7,0L476.7,0Z" id="f1_24" transform="scale(0.001,-0.001)"/>
    <path d="M378.9,-19.8c0,0,-47.4,0,-88.6,13.8c0,0,-42.8,13.6,-76.4,41.1c0,0,-35.1,29.1,-56.5,76.4c0,0,-21.4,47.4,-21.4,108.5l0,496.5l-149.7,0l0,35.2c0,0,55,16.8,100.8,61.1c0,0,47.3,44.3,74.8,94.7c0,0,29.1,51.9,50.5,100.8c0,0,21.4,48.9,36.6,81c0,0,16.8,32.1,29.1,32.1c0,0,7.6,0,12.2,-6.1c0,0,6.1,-6.1,6.1,-19.9l0,-296.4l294.9,0l0,-84l-294.9,0l0,-499.6c0,0,0,-65.7,29,-97.8c0,0,30.6,-33.6,81,-33.6c0,0,59.6,0,90.1,38.2c0,0,30.6,39.7,30.6,137.5l0,108.5l88.6,0l0,-91.7c0,0,0,-148.2,-51.9,-221.5c0,0,-53.5,-74.8,-184.9,-74.8Z" id="f1_2g" transform="scale(0.001,-0.001)"/>
    <path d="M690.6,-108.4L618.8,0L105.4,0c0,0,-12.2,88.6,-13.7,88.6c0,0,19.8,13.8,73.3,48.9c0,0,55,36.7,100.8,67.2c0,0,47.4,32.1,103.9,77.9c0,0,58.1,45.9,97.8,87.1c0,0,41.3,41.3,68.8,90.2c0,0,27.5,48.9,27.5,91.6c0,0,0,76.4,-52,131.4c0,0,-51.9,55,-122.2,55c0,0,-99.3,0,-160.4,-70.3c0,0,29,-7.6,50.4,-32c0,0,22.9,-24.5,22.9,-61.2c0,0,0,-47.3,-32.1,-76.3c0,0,-32.1,-30.6,-82.5,-30.6c0,0,-62.6,0,-93.2,36.7c0,0,-32.1,36.6,-32.1,88.6c0,0,0,91.6,103.9,161.9c0,0,105.4,70.3,250.6,70.3c0,0,139,0,220,-74.9c0,0,81,-74.8,81,-209.3c0,0,0,-56.5,-47.4,-125.2c0,0,-48.9,-70.3,-154.3,-148.2L316.3,122.2l397.2,0L741,-100.7l-50.4,-7.7Z" id="f1_m" transform="scale(0.001,-0.001)"/>
    <path d="M414,73.3c0,0,61.1,0,107,47.4c0,0,45.8,48.9,67.2,122.2c0,0,21.4,73.4,21.4,158.9c0,0,0,84,-21.4,158.9c0,0,-22.9,74.9,-67.2,122.2c0,0,-45.9,48.9,-105.4,48.9c0,0,-61.2,0,-105.5,-47.4c0,0,-45.8,-48.8,-67.2,-123.7c0,0,-22.9,-74.9,-22.9,-158.9c0,0,0,-85.5,21.4,-158.9c0,0,21.4,-73.3,67.2,-120.7c0,0,45.8,-48.9,105.4,-48.9Zm1.6,-93.1c0,0,-87.1,0,-157.4,35.1c0,0,-70.3,36.6,-113.1,96.2c0,0,-44.3,59.6,-67.2,134.5C77.9,246,55,320.8,55,401.8c0,0,0,79.5,22.9,152.8c0,0,22.9,74.8,67.2,134.4c0,0,44.3,61.1,113.1,96.3c0,0,70.3,36.6,155.8,36.6c0,0,87.1,0,155.9,-35.1c0,0,70.2,-36.7,114.5,-96.2c0,0,44.4,-61.2,67.3,-134.5c0,0,22.9,-74.8,22.9,-154.3c0,0,0,-81,-22.9,-155.8c0,0,-22.9,-74.9,-65.7,-134.5c0,0,-44.3,-59.6,-114.6,-94.7c0,0,-70.3,-36.6,-155.8,-36.6Z" id="f1_k" transform="scale(0.001,-0.001)"/>
    <path d="M87.1,0l0,84l180.3,0l0,583.6L108.5,595.8L62.6,692.1L337.6,799l90.2,0l0,-715l172.6,0l0,-84Z" id="f1_l" transform="scale(0.001,-0.001)"/>
    <path d="M331.5,-226c0,0,-71.8,0,-129.8,15.3c0,0,-59.6,16.8,-97.8,50.4c0,0,-38.2,35.1,-38.2,85.5c0,0,0,47.4,26,76.3c0,0,27.5,29.1,79.4,29.1c0,0,47.4,0,74.9,-30.6c0,0,29,-32,29,-71.7c0,0,0,-13.8,-3.1,-27.5c0,0,-4.5,-13.8,-10.6,-26c0,0,-6.2,-13.7,-7.7,-19.8c0,0,44.3,-6.2,62.7,-6.2c0,0,67.2,0,122.2,21.4c0,0,56.5,21.4,90.1,56.6c0,0,35.2,35.1,53.5,77.8c0,0,18.3,42.8,18.3,90.1c0,0,0,191,-191,191c0,0,-32,0,-88.6,-7.6L304,372.8c0,0,242.9,36.6,242.9,189.4c0,0,0,77.9,-50.4,123.8c0,0,-51.9,45.8,-143.6,45.8c0,0,-61.1,0,-99.3,-15.3c0,0,-38.2,-16.8,-81,-65.7c0,0,16.8,0,35.2,-4.5c0,0,18.3,-4.6,35.1,-13.8c0,0,18.4,-10.7,30.6,-30.6c0,0,12.2,-19.8,12.2,-47.3c0,0,0,-47.4,-30.6,-77.9c0,0,-30.5,-32.1,-77.9,-32.1c0,0,-58,0,-94.7,38.2c0,0,-36.7,38.2,-36.7,84c0,0,0,120.7,93.2,187.9c0,0,93.2,68.8,242.9,68.8c0,0,79.5,0,140.6,-22.9c0,0,61.1,-23,96.3,-59.6c0,0,36.6,-38.2,53.4,-82.5c0,0,18.4,-44.3,18.4,-91.7c0,0,0,-79.4,-47.4,-134.4c0,0,-47.4,-55,-143.6,-81c0,0,136,-13.8,200.1,-81c0,0,64.2,-67.2,64.2,-172.6c0,0,0,-139,-117.6,-230.6c0,0,-117.7,-93.2,-314.8,-93.2Z" id="f1_n" transform="scale(0.001,-0.001)"/>
    <path d="M36.7,0l0,105.4l163.4,0l0,910.6l-175.7,0l0,105.4l452.3,0L741,414l247.5,707.4l420.1,0l0,-105.4l-172.6,0l0,-910.6l184.8,0L1420.8,0L902.9,0l0,105.4l165,0l0,884.6L776.1,191c0,0,-21.4,-56.6,-53.5,-56.6c0,0,-18.3,0,-33.6,15.3c0,0,-16.8,15.3,-24.4,38.2l-327,826.5l0,-909l188,0L525.6,0Z" id="f1_1d" transform="scale(0.001,-0.001)"/>
    <path d="M381.9,-19.8c0,0,-58,0,-111.5,10.7c0,0,-55,10.6,-103.9,33.5c0,0,-48.9,23,-77.9,62.7c0,0,-30.5,41.2,-30.5,93.2c0,0,0,48.9,30.5,79.4c0,0,30.6,32.1,71.8,32.1c0,0,41.3,0,70.3,-22.9c0,0,30.6,-22.9,30.6,-67.2c0,0,0,-38.2,-21.4,-62.7c0,0,-23,-25.9,-52,-25.9c0,0,29,-19.9,77.9,-33.7c0,0,48.9,-15.2,97.8,-15.2c0,0,56.5,0,100.8,10.7c0,0,45.9,12.2,78,42.7c0,0,32,30.6,32,78c0,0,0,36.6,-21.3,64.1c0,0,-21.4,27.5,-56.6,44.3c0,0,-36.6,16.8,-82.5,32.1c0,0,-45.8,16.8,-93.2,29c0,0,-48.9,12.3,-94.7,32.1c0,0,-45.8,19.9,-81,42.8c0,0,-36.6,24.4,-58,62.6c0,0,-22.9,39.8,-22.9,90.2c0,0,0,51.9,21.4,91.6c0,0,22.9,41.3,56.5,65.7c0,0,33.6,24.5,76.4,41.3c0,0,44.3,16.8,84,22.9c0,0,39.7,7.6,76.4,7.6c0,0,53.5,0,106.9,-12.2c0,0,55,-12.2,102.4,-33.6c0,0,47.4,-22.9,77.9,-58c0,0,30.6,-36.7,30.6,-79.5c0,0,0,-50.4,-29.1,-81c0,0,-29,-30.5,-67.2,-30.5c0,0,-42.8,0,-71.8,24.4c0,0,-30.5,26,-30.5,71.8c0,0,0,21.4,10.7,38.2c0,0,10.6,18.4,19.8,26c0,0,9.2,7.6,26,18.3c0,0,-74.9,35.2,-168.1,35.2c0,0,-76.4,0,-128.3,-33.6c0,0,-53.5,-33.6,-53.5,-94.8c0,0,0,-29,21.4,-50.4c0,0,22.9,-22.9,58.1,-36.6c0,0,36.6,-15.3,82.5,-30.6c0,0,45.8,-15.3,93.2,-27.5c0,0,48.9,-13.7,94.7,-35.1c0,0,47.3,-21.4,82.5,-47.4c0,0,36.7,-27.5,58,-68.7c0,0,23,-42.8,23,-96.3c0,0,0,-55,-19.9,-97.8c0,0,-19.9,-42.8,-51.9,-68.7c0,0,-32.1,-26,-76.4,-42.8c0,0,-44.3,-16.7,-90.2,-22.8c0,0,-45.8,-7.7,-97.8,-7.7Z" id="f1_2f" transform="scale(0.001,-0.001)"/>
    <path d="M24.4,0l0,105.4l180.3,0l0,910.6l-180.3,0l0,105.4l514.9,0l0,-105.4l-158.9,0l0,-469.1c0,0,7.7,3.1,36.7,27.5c0,0,29,26,38.2,33.7c0,0,21.4,21.3,116.1,122.2c0,0,94.7,100.8,178.7,192.5l82.5,93.2l-169.5,0l0,105.4l528.6,0l0,-105.4l-171.1,0L641.7,614.2L1071,105.4l131.4,0L1202.4,0L673.8,0l0,105.4l166.5,0L508.8,517.9L380.4,412.5l0,-307.1l158.9,0L539.3,0Z" id="f1_1b" transform="scale(0.001,-0.001)"/>
    <path d="M304,87.1c0,0,48.9,0,100.9,29c0,0,53.4,29,87,73.3c0,0,35.2,45.9,35.2,87.1l0,158.9c0,0,-48.9,-47.3,-110,-84c0,0,-62.7,-38.2,-102.4,-55c0,0,-39.7,-18.3,-68.7,-48.9c0,0,-29.1,-32.1,-29.1,-77.9c0,0,0,-36.7,21.4,-59.6c0,0,21.4,-22.9,65.7,-22.9ZM264.3,-19.8c0,0,-91.7,0,-148.2,47.3c0,0,-58,48.9,-58,134.4c0,0,0,45.9,19.8,82.5c0,0,19.9,36.7,52,61.2c0,0,33.6,24.4,76.4,47.3c0,0,42.7,22.9,85.5,38.2c0,0,44.3,16.8,85.6,35.2c0,0,42.7,19.8,74.8,38.1c0,0,33.6,19.9,53.5,47.4c0,0,21.4,29,21.4,62.6c0,0,0,85.6,-41.3,126.9c0,0,-42.7,41.2,-117.6,41.2c0,0,-53.5,0,-100.8,-16.8c0,0,-47.4,-16.8,-74.9,-45.8c0,0,48.9,0,76.4,-24.5c0,0,27.5,-26,27.5,-61.1c0,0,0,-47.4,-30.6,-76.4c0,0,-30.5,-30.5,-73.3,-30.5c0,0,-42.8,0,-74.9,30.5c0,0,-33.6,32.1,-33.6,90.2c0,0,0,30.5,19.9,65.7c0,0,19.9,36.6,56.5,70.2c0,0,36.7,33.6,99.3,55c0,0,64.2,22.9,140.6,22.9c0,0,61.1,0,110,-13.7c0,0,50.4,-13.8,90.1,-44.3c0,0,41.3,-30.6,64.2,-84c0,0,22.9,-53.5,22.9,-126.8l0,-342.3c0,0,0,-29,6.1,-55c0,0,7.7,-27.5,27.5,-48.9c0,0,21.4,-21.3,53.5,-21.3c0,0,94.7,0,94.7,132.9l0,110l82.5,0l0,-96.3c0,0,0,-73.3,-15.3,-125.3c0,0,-16.8,-51.9,-45.8,-77.9C890.7,29,860.1,1.5,825,-9.1c0,0,-35.1,-10.7,-82.5,-10.7c0,0,-48.9,0,-91.7,18.4c0,0,-44.3,19.7,-74.8,62.5c0,0,-32.1,42.8,-36.7,103.9c0,0,-32.1,-81,-108.5,-132.9c0,0,-77.9,-51.9,-166.5,-51.9Z" id="f1_1x" transform="scale(0.001,-0.001)"/>
    <path d="M635.6,490.4c0,0,-1.6,108.5,-58.1,174.2c0,0,-56.5,67.2,-137.5,67.2c0,0,-82.5,0,-140.6,-65.7c0,0,-59.5,-67.2,-68.7,-175.7ZM444.6,-19.8c0,0,-91.7,0,-166.5,33.6c0,0,-76.4,35.1,-123.8,93.1c0,0,-48.9,58.1,-73.3,129.9c0,0,-26,73.3,-26,152.8c0,0,0,67.2,15.3,129.8c0,0,15.3,64.2,47.3,117.7c0,0,32.1,55,76.4,96.2c0,0,45.9,41.3,107,64.2c0,0,62.6,24.4,134.4,24.4c0,0,74.9,0,140.6,-27.5c0,0,65.7,-27.5,114.6,-77.9c0,0,50.4,-50.4,79.4,-128.3c0,0,29,-79.4,30.6,-177.2l-576,0l0,-6.1c0,0,0,-64.2,13.7,-119.2c0,0,15.3,-56.5,42.8,-99.3c0,0,27.5,-44.3,73.3,-68.8c0,0,45.9,-25.9,105.5,-25.9c0,0,77.9,0,145.1,47.3c0,0,68.8,48.9,93.2,137.5L785.3,249c0,0,-29,-123.7,-119.2,-195.5c0,0,-90.1,-73.3,-221.5,-73.3Z" id="f1_21" transform="scale(0.001,-0.001)"/>
    <path d="M656.9,-21.3l0,168c0,0,-94.7,-166.5,-270.4,-166.5c0,0,-25.9,0,-48.9,3.1c0,0,-24.4,4.6,-55,13.7c0,0,-30.5,9.1,-55,29c0,0,-24.4,21.4,-45.8,51.9c0,0,-21.4,30.6,-33.6,79.5c0,0,-12.2,48.9,-12.2,110l0,449.1l-137.4,0l0,82.5l297.8,0l0,-530.1c0,0,0,-99.3,32.1,-142.1c0,0,32.1,-44.3,97.8,-44.3c0,0,47.3,0,99.3,27.5c0,0,53.4,29,88.6,74.9c0,0,36.6,47.3,36.6,94.7l0,436.9l-135.9,0l0,82.5l297.9,0l0,-715L956.4,67.2L956.4,0L656.9,-21.3Z" id="f1_2h" transform="scale(0.001,-0.001)"/>
    <path d="M458.3,68.8c0,0,61.1,0,107,47.3c0,0,45.8,48.9,67.2,120.7c0,0,22.9,71.8,22.9,152.8c0,0,0,65.7,-10.7,123.7c0,0,-10.7,59.6,-32.1,110c0,0,-22.9,52,-62.6,82.5c0,0,-39.7,30.6,-91.7,30.6c0,0,-48.9,0,-88.6,-29c0,0,-39.7,-29.1,-62.6,-74.9c0,0,-22.9,-47.4,-35.2,-97.8c0,0,-12.2,-50.4,-12.2,-99.3c0,0,0,-102.3,22.9,-184.8c0,0,24.5,-82.5,70.3,-131.4c0,0,45.9,-50.4,105.4,-50.4Zm30.6,-88.6c0,0,-81,0,-152.8,41.2c0,0,-73.3,41.2,-110,126.8L168.1,0L99.3,0l0,1029.7l-152.7,0l0,91.7l313.1,0l0,-420.1c0,0,38.2,56.5,96.3,88.6c0,0,59.6,32,125.3,32c0,0,155.8,0,250.5,-117.6c0,0,94.7,-119.2,94.7,-304c0,0,0,-117.7,-42.7,-213.9c0,0,-42.8,-96.3,-119.2,-151.3c0,0,-77.9,-54.9,-175.7,-54.9Z" id="f1_1y" transform="scale(0.001,-0.001)"/>
    <path d="M27,0l0,82l165,0l0,947l-165,0l0,92l325,0L352,82l161,0L513,0Z" id="f1_28" transform="scale(0.001,-0.001)"/>
    <path d="M218.5,-13.7c0,0,-45.9,0,-77.9,30.5c0,0,-32.1,32.1,-32.1,77.9c0,0,0,45.9,32.1,77.9c0,0,32,32.1,77.9,32.1c0,0,44.3,0,77.9,-32.1c0,0,33.6,-33.6,33.6,-77.9c0,0,0,-45.8,-33.6,-76.4c0,0,-33.6,-32,-77.9,-32Z" id="f1_i" transform="scale(0.001,-0.001)"/>
    <path d="M21,0l0,105l182,0l0,910l-182,0l0,106l529,0l0,-106l-172,0l0,-910l172,0L550,0Z" id="f1_19" transform="scale(0.001,-0.001)"/>
    <path d="M35.1,0l0,82.5l146.7,0l0,634l-146.7,0l0,82.5l282.7,13.8L337.6,649.3c0,0,36.7,84,111.6,128.3c0,0,76.4,44.3,154.3,44.3c0,0,21.4,0,41.2,-1.5c0,0,21.4,-3,45.9,-10.7c0,0,25.9,-9.1,47.3,-21.4c0,0,21.4,-12.2,42.8,-33.6c0,0,21.4,-22.9,35.1,-51.9c0,0,15.3,-30.6,24.5,-73.4c0,0,10.7,-44.3,10.7,-97.7L851,82.5l152.8,0l0,-82.5L553.1,0l0,82.5l137.5,0l0,447.6c0,0,0,96.3,-38.2,142.1c0,0,-38.2,47.4,-105.5,47.4c0,0,-42.7,0,-77.9,-15.3c0,0,-35.1,-16.8,-58,-44.3c0,0,-24.5,-27.5,-39.7,-64.2c0,0,-15.3,-36.6,-21.4,-76.4c0,0,-7.7,-39.7,-7.7,-82.5l0,-354.4l134.5,0L476.7,0Z" id="f1_2a" transform="scale(0.001,-0.001)"/>
    <path d="M441.5,-19.8c0,0,-80.9,0,-151.2,27.4c0,0,-70.3,29.1,-122.2,79.5c0,0,-53.5,51.9,-82.5,128.3c0,0,-30.6,77.9,-30.6,168.1c0,0,0,87.1,26,165c0,0,25.9,77.9,74.8,139c0,0,48.9,61.1,126.8,97.8c0,0,79.5,36.6,175.7,36.6c0,0,55,0,108.5,-15.2c0,0,55,-16.8,102.4,-47.4c0,0,47.3,-30.5,76.4,-82.5c0,0,29,-51.9,29,-116.1c0,0,0,-45.8,-30.6,-82.5c0,0,-30.5,-38.2,-85.5,-38.2c0,0,-48.9,0,-82.5,27.5c0,0,-33.6,29,-33.6,76.4c0,0,0,48.9,33.6,74.9c0,0,35.1,27.5,82.5,27.5c0,0,-24.5,39.7,-70.3,64.1c0,0,-45.8,26,-103.9,26c0,0,-64.2,0,-114.6,-27.5c0,0,-51.9,-29,-82.5,-76.4c0,0,-32.1,-47.4,-47.3,-103.9c0,0,-16.8,-58,-16.8,-119.2c0,0,0,-145.1,65.7,-227.6c0,0,67.2,-82.5,186.3,-82.5c0,0,44.3,0,85.6,18.3c0,0,42.8,19.9,71.8,47.4c0,0,29,29,47.4,58.1c0,0,19.8,29,27.5,53.4L792.9,249c0,0,-29,-122.2,-120.7,-195.5c0,0,-91.6,-73.3,-230.7,-73.3Z" id="f1_1z" transform="scale(0.001,-0.001)"/>
    <path d="M418.6,73.3c0,0,91.7,0,151.3,94.8c0,0,59.5,94.7,59.5,241.3c0,0,0,59.6,-12.2,114.6c0,0,-12.2,56.6,-35.1,105.4c0,0,-24.5,48.9,-64.2,78c0,0,-41.2,29,-93.2,29c0,0,-50.4,0,-88.6,-29c0,0,-39.7,-30.6,-61.1,-81c0,0,-22.9,-50.4,-33.6,-108.5c0,0,-12.2,-58,-12.2,-122.2c0,0,0,-82.5,19.8,-154.3c0,0,19.9,-71.8,64.2,-119.2c0,0,44.3,-48.9,105.4,-48.9ZM386.5,-19.8c0,0,-148.2,0,-236.8,114.5c0,0,-90.1,116.1,-90.1,305.6c0,0,0,189.4,90.1,305.5c0,0,91.7,116.1,249.1,116.1c0,0,61.1,0,120.6,-32c0,0,61.2,-32.1,97.8,-88.6l0,328.4l-174.1,0l0,91.7l334.5,0l0,-1038.9l136,0L913.6,0L647.8,0l-29,126.8c0,0,-38.2,-71.8,-102.4,-108.5c0,0,-64.2,-38.1,-129.9,-38.1Z" id="f1_20" transform="scale(0.001,-0.001)"/>
    <path d="M394.2,-28.9c0,0,-35.2,0,-56.6,22.9c0,0,-21.3,24.3,-38.2,82.4L129.9,716.5l-125.3,0l0,82.5l418.6,0l0,-82.5l-119.2,0L427.8,161.9L603.5,713.5l134.4,0l162,-554.6l140.5,557.6l-125.3,0l0,82.5l343.8,0l0,-82.5l-107,0L983.9,81c0,0,-16.8,-64.2,-36.7,-87c0,0,-21.4,-22.9,-61.1,-22.9c0,0,-38.2,0,-59.6,22.9c0,0,-22.9,24.3,-38.2,80.9L656.9,557.6L502.6,82.5c0,0,-21.3,-62.6,-42.7,-87c0,0,-23,-24.4,-65.7,-24.4Z" id="f1_2j" transform="scale(0.001,-0.001)"/>
    <path d="M55,0l0,87.1l143.6,0l0,629.4L55,716.5L55,799l143.6,0c0,0,0,189.5,90.2,284.2c0,0,90.1,96.2,262.7,96.2c0,0,70.3,0,125.3,-16.8c0,0,55,-16.8,87.1,-44.3c0,0,33.6,-29,48.9,-61.1c0,0,16.8,-33.6,16.8,-68.7c0,0,0,-58.1,-30.6,-91.7c0,0,-32.1,-33.6,-79.4,-33.6c0,0,-41.3,0,-71.8,29c0,0,-30.6,29.1,-30.6,71.8c0,0,0,39.8,30.6,64.2c0,0,32.1,26,65.7,26c0,0,0,27.5,-47.4,44.3c0,0,-48.9,18.3,-91.7,18.3c0,0,-27.5,0,-56.5,-6.1c0,0,-29,-6.1,-58,-19.9c0,0,-29.1,-15.2,-52,-36.6c0,0,-24.4,-22.9,-38.2,-55c0,0,-15.3,-33.6,-15.3,-73.4l0,-126.8l479.8,0l0,-711.9l131.4,0L965.6,0L559.2,0l0,87.1l114.6,0l0,629.4l-314.8,0L359,87.1l125.3,0L484.3,0Z" id="f1_au" transform="scale(0.001,-0.001)"/>
    <path d="M24,0l0,105l180,0l0,910l-180,0l0,106l527,0l0,-106l-171,0l0,-910l422,0l0,360l140,0L942,0Z" id="f0_1c" transform="scale(0.001,-0.001)"/>
    <path d="M420.1,105.4c0,0,48.9,0,102.4,35.2c0,0,53.5,36.6,128.3,108.4L473.6,513.3c0,0,-79.4,-50.4,-117.6,-77.9c0,0,-38.2,-29,-62.7,-58c0,0,-25.9,-30.6,-32,-55c0,0,-6.2,-26,-6.2,-68.8c0,0,0,-59.6,44.3,-103.9c0,0,45.9,-44.3,120.7,-44.3ZM537.8,690.6c0,0,13.7,10.7,41.2,30.5c0,0,29.1,21.4,44.3,33.6c0,0,16.8,12.2,38.2,32.1c0,0,22.9,19.9,35.2,36.7c0,0,12.2,18.3,21.4,41.2c0,0,9.1,22.9,9.1,47.4c0,0,0,56.5,-27.5,91.7c0,0,-27.5,36.6,-73.3,36.6c0,0,-67.2,0,-111.5,-39.7c0,0,-44.3,-39.7,-44.3,-114.6c0,0,0,-65.7,67.2,-195.5ZM403.3,-19.8c0,0,-149.7,0,-233.7,84c0,0,-84,84,-84,218.4c0,0,0,38.2,9.1,71.8c0,0,9.2,35.2,29.1,62.7c0,0,19.8,29,41.2,50.4c0,0,21.4,22.9,55,45.8c0,0,33.6,24.5,58.1,39.8c0,0,25.9,16.8,65.7,39.7c0,0,41.2,24.4,65.6,39.7c0,0,-39.7,62.6,-64.1,129.9c0,0,-24.5,67.2,-24.5,106.9c0,0,0,122.2,84.1,198.6c0,0,84,76.4,207.7,76.4c0,0,105.5,0,174.2,-61.1c0,0,68.8,-62.6,68.8,-160.4c0,0,0,-52,-19.9,-99.3c0,0,-21.4,-47.4,-61.1,-90.2c0,0,-39.7,-42.7,-81,-76.4c0,0,-42.8,-35.1,-99.3,-74.8l162,-235.3L997.6,641.7l-148.2,0l0,71.8l427.8,0l0,-71.8l-123.7,0L825,249c0,0,36.7,-67.2,90.1,-106.9c0,0,55,-41.3,96.3,-41.3c0,0,27.5,0,45.8,6.1c0,0,19.9,6.2,38.2,23c0,0,18.4,18.3,27.5,55c0,0,10.7,36.6,10.7,94.7l0,105.4l97.8,0l0,-62.6c0,0,0,-85.6,-10.7,-145.2c0,0,-10.7,-61.1,-35.1,-106.9c0,0,-24.5,-45.9,-70.3,-67.2c0,0,-45.9,-22.9,-114.6,-22.9c0,0,-68.8,0,-140.6,41.2c0,0,-73.3,41.2,-135.9,126.8c0,0,-12.3,-10.7,-42.8,-38.2c0,0,-30.6,-27.5,-44.3,-39.7c0,0,-15.3,-12.2,-45.8,-33.6c0,0,-30.6,-21.4,-55,-30.6c0,0,-24.5,-9.1,-59.6,-16.7c0,0,-35.2,-9.2,-73.4,-9.2Z" id="f0_a" transform="scale(0.001,-0.001)"/>
    <path d="M592.8,-19.8c0,0,-116.1,0,-215.4,47.3c0,0,-100.9,47.4,-169.6,126.8c0,0,-68.8,81,-107,189.5c0,0,-38.2,108.4,-38.2,227.6c0,0,0,123.7,38.2,229.2c0,0,39.8,106.9,110,181.8c0,0,71.8,76.4,174.2,119.1c0,0,102.4,42.8,223.1,42.8c0,0,102.3,0,195.5,-42.8c0,0,94.7,-42.7,155.8,-122.2c0,0,61.2,-81,61.2,-180.3c0,0,0,-50.4,-39.8,-91.6c0,0,-39.7,-42.8,-105.4,-42.8c0,0,-56.5,0,-91.6,32.1c0,0,-35.2,33.6,-35.2,90.1c0,0,0,58.1,42.8,88.6c0,0,44.3,32.1,90.1,32.1c0,0,-36.6,55,-108.4,93.2c0,0,-71.8,39.7,-166.6,39.7c0,0,-151.2,0,-249,-128.3c0,0,-99.3,-128.3,-99.3,-342.2c0,0,0,-82.5,26,-162c0,0,27.5,-81,73.3,-145.1c0,0,47.4,-65.7,120.7,-105.4c0,0,73.3,-39.8,160.4,-39.8c0,0,65.7,0,123.8,24.5c0,0,58,24.4,97.7,64.2c0,0,39.8,39.7,65.7,85.5c0,0,27.5,47.4,39.8,96.3l100.8,-47.4c0,0,-39.7,-172.6,-160.4,-265.8c0,0,-120.7,-94.7,-313.2,-94.7Z" id="f0_13" transform="scale(0.001,-0.001)"/>
    <path d="M415.6,73.3c0,0,67.2,0,114.5,45.9c0,0,48.9,47.3,70.3,114.6c0,0,22.9,68.7,22.9,146.6c0,0,0,152.8,-55,247.5c0,0,-56.5,94.7,-149.7,94.7c0,0,-61.1,0,-105.4,-45.8c0,0,-45.8,-45.8,-67.2,-114.6c0,0,-22.9,-70.3,-22.9,-151.2c0,0,0,-64.2,10.7,-120.7c0,0,10.6,-58.1,32,-108.5c0,0,21.4,-50.4,59.6,-79.4c0,0,39.7,-29.1,90.2,-29.1Zm-4.6,-472c0,0,-74.9,0,-136,18.4c0,0,-61.1,18.3,-102.4,59.6c0,0,-42.7,41.2,-42.7,100.8c0,0,0,58.1,36.6,87.1c0,0,38.2,30.5,88.6,30.5c0,0,42.8,0,71.8,-29c0,0,29.1,-30.5,29.1,-76.4c0,0,0,-29,-19.9,-58c0,0,-19.8,-29.1,-42.8,-38.2c0,0,48.9,-15.3,91.7,-15.3c0,0,117.6,0,174.2,88.6c0,0,58,88.6,58,247.4l0,132.9c0,0,-22.9,-71.8,-87.1,-120.7c0,0,-64.1,-48.8,-146.6,-48.8c0,0,-62.7,0,-116.1,22.9c0,0,-53.5,22.9,-90.2,62.6c0,0,-38.2,39.7,-64.1,93.2c0,0,-27.5,53.5,-39.8,113c0,0,-12.2,61.2,-12.2,123.8c0,0,0,81,19.9,155.8c0,0,21.4,74.9,61.1,136c0,0,39.7,61.1,103.9,97.8c0,0,64.1,36.6,142.1,36.6c0,0,68.7,0,137.5,-44.3c0,0,68.7,-45.8,91.6,-120.7L635.6,799l250.5,0l0,-88.6l-108.5,0l0,-673.7c0,0,0,-67.2,-12.2,-129.8c0,0,-12.2,-62.6,-39.7,-119.2c0,0,-27.5,-56.5,-68.8,-96.2c0,0,-42.7,-41.3,-105.4,-65.7c0,0,-64.1,-24.5,-140.5,-24.5Z" id="f0_23" transform="scale(0.001,-0.001)"/>
    <path d="M499.6,-169.5c0,0,-107,10.7,-194,73.3c0,0,-87.1,62.7,-140.6,157.3c0,0,-55,94.7,-84,206.3c0,0,-29.1,113,-29.1,230.7c0,0,0,116.1,29.1,227.6c0,0,29,113.1,82.5,207.8c0,0,55,96.2,142.1,158.9c0,0,87,64.1,194,74.8l0,-64.1c0,0,-67.2,-13.8,-122.2,-71.8c0,0,-55,-58.1,-88.6,-143.7c0,0,-33.7,-87,-50.5,-186.3c0,0,-18.3,-100.9,-18.3,-203.2c0,0,0,-103.9,16.8,-204.8c0,0,18.3,-100.8,52,-186.4c0,0,33.6,-85.5,88.6,-141.9c0,0,55,-58.1,122.2,-70.3l0,-64.2Z" id="f0_c" transform="scale(0.001,-0.001)"/>
    <path d="M50.4,-169.5l0,64.2c0,0,67.2,12.2,120.7,70.3c0,0,55,57.9,88.6,143.5c0,0,33.6,85.5,52,184.8c0,0,18.3,100.9,18.3,204.8c0,0,0,103.8,-18.3,203.2c0,0,-18.4,100.8,-52,186.3c0,0,-33.6,85.6,-87.1,143.7c0,0,-55,58,-122.2,71.8l0,64.1c0,0,107,-10.7,194,-73.3c0,0,87.1,-64.2,140.6,-158.9c0,0,55,-94.7,84,-207.8c0,0,29.1,-113,29.1,-229.1c0,0,0,-117.7,-29.1,-229.2c0,0,-29,-113.1,-82.5,-207.8c0,0,-55,-94.6,-142.1,-157.3c0,0,-87,-62.6,-194,-73.3Z" id="f0_d" transform="scale(0.001,-0.001)"/>
    <path d="M87.1,0l0,84l180.3,0l0,583.6L108.5,595.8L62.6,692.1L337.6,799l90.2,0l0,-715l172.6,0l0,-84Z" id="f0_l" transform="scale(0.001,-0.001)"/>
    <path d="M690.6,-108.4L618.8,0L105.4,0c0,0,-12.2,88.6,-13.7,88.6c0,0,19.8,13.8,73.3,48.9c0,0,55,36.7,100.8,67.2c0,0,47.4,32.1,103.9,77.9c0,0,58.1,45.9,97.8,87.1c0,0,41.3,41.3,68.8,90.2c0,0,27.5,48.9,27.5,91.6c0,0,0,76.4,-52,131.4c0,0,-51.9,55,-122.2,55c0,0,-99.3,0,-160.4,-70.3c0,0,29,-7.6,50.4,-32c0,0,22.9,-24.5,22.9,-61.2c0,0,0,-47.3,-32.1,-76.3c0,0,-32.1,-30.6,-82.5,-30.6c0,0,-62.6,0,-93.2,36.7c0,0,-32.1,36.6,-32.1,88.6c0,0,0,91.6,103.9,161.9c0,0,105.4,70.3,250.6,70.3c0,0,139,0,220,-74.9c0,0,81,-74.8,81,-209.3c0,0,0,-56.5,-47.4,-125.2c0,0,-48.9,-70.3,-154.3,-148.2L316.3,122.2l397.2,0L741,-100.7l-50.4,-7.7Z" id="f0_m" transform="scale(0.001,-0.001)"/>
    <path d="M331.5,-226c0,0,-71.8,0,-129.8,15.3c0,0,-59.6,16.8,-97.8,50.4c0,0,-38.2,35.1,-38.2,85.5c0,0,0,47.4,26,76.3c0,0,27.5,29.1,79.4,29.1c0,0,47.4,0,74.9,-30.6c0,0,29,-32,29,-71.7c0,0,0,-13.8,-3.1,-27.5c0,0,-4.5,-13.8,-10.6,-26c0,0,-6.2,-13.7,-7.7,-19.8c0,0,44.3,-6.2,62.7,-6.2c0,0,67.2,0,122.2,21.4c0,0,56.5,21.4,90.1,56.6c0,0,35.2,35.1,53.5,77.8c0,0,18.3,42.8,18.3,90.1c0,0,0,191,-191,191c0,0,-32,0,-88.6,-7.6L304,372.8c0,0,242.9,36.6,242.9,189.4c0,0,0,77.9,-50.4,123.8c0,0,-51.9,45.8,-143.6,45.8c0,0,-61.1,0,-99.3,-15.3c0,0,-38.2,-16.8,-81,-65.7c0,0,16.8,0,35.2,-4.5c0,0,18.3,-4.6,35.1,-13.8c0,0,18.4,-10.7,30.6,-30.6c0,0,12.2,-19.8,12.2,-47.3c0,0,0,-47.4,-30.6,-77.9c0,0,-30.5,-32.1,-77.9,-32.1c0,0,-58,0,-94.7,38.2c0,0,-36.7,38.2,-36.7,84c0,0,0,120.7,93.2,187.9c0,0,93.2,68.8,242.9,68.8c0,0,79.5,0,140.6,-22.9c0,0,61.1,-23,96.3,-59.6c0,0,36.6,-38.2,53.4,-82.5c0,0,18.4,-44.3,18.4,-91.7c0,0,0,-79.4,-47.4,-134.4c0,0,-47.4,-55,-143.6,-81c0,0,136,-13.8,200.1,-81c0,0,64.2,-67.2,64.2,-172.6c0,0,0,-139,-117.6,-230.6c0,0,-117.7,-93.2,-314.8,-93.2Z" id="f0_n" transform="scale(0.001,-0.001)"/>
    <path d="M478.2,111.5l0,577.5L198.6,111.5ZM299.4,-287.1l0,100.8l178.8,0L478.2,0L81,0L62.6,99.3L450.7,809.7L638.6,788.3l0,-676.8l198.6,0L825,0L638.6,0l0,-186.3l166.5,0l0,-100.8Z" id="f0_o" transform="scale(0.001,-0.001)"/>
    <path d="M328.5,-224.5c0,0,-71.8,0,-129.9,15.3c0,0,-59.6,16.8,-97.8,50.4c0,0,-38.2,35.1,-38.2,85.6c0,0,0,47.3,26,74.7c0,0,27.5,29.1,79.5,29.1c0,0,47.3,0,74.8,-30.6c0,0,29,-30.5,29,-70.2c0,0,0,-19.8,-9.1,-42.8c0,0,-10.7,-24.4,-10.7,-24.4c0,0,47.3,-7.6,61.1,-7.6c0,0,67.2,0,120.7,21.3c0,0,53.5,21.4,85.5,56.6c0,0,33.7,36.6,50.5,80.9c0,0,16.8,45.8,16.8,96.2c0,0,0,67.2,-26,117.6c0,0,-27.5,52,-74.9,81c0,0,-47.3,30.6,-103.9,44.3c0,0,-58,15.3,-125.2,15.3c0,0,-36.7,0,-96.3,-9.2l-42.8,53.5l55,386.5l507.3,0L635.6,672.2l-371.3,0l-35.1,-223c0,0,53.4,6.1,113,6.1c0,0,110,0,191,-24.5c0,0,81,-24.4,126.8,-68.7c0,0,47.4,-45.8,70.3,-103.9c0,0,22.9,-59.6,22.9,-132.9c0,0,0,-70.3,-27.5,-132.8c0,0,-27.5,-62.7,-79.4,-111.6c0,0,-52,-48.9,-133,-76.4c0,0,-82.5,-29,-184.8,-29Z" id="f0_p" transform="scale(0.001,-0.001)"/>
    <path d="M485.8,71.8c0,0,90.2,0,146.7,67.2c0,0,58.1,67.3,58.1,171.1c0,0,0,97.8,-52,158.9c0,0,-51.9,62.7,-149.7,62.7c0,0,-42.8,0,-94.7,-18.4c0,0,-52,-19.8,-91.7,-55c0,0,-41.2,-36.6,-41.2,-77.9c0,0,0,-87.1,22.9,-154.3c0,0,24.4,-67.2,76.4,-110c0,0,51.9,-44.3,125.2,-44.3Zm-6.1,-91.6c0,0,-171.1,0,-273.4,119.1c0,0,-102.4,120.7,-102.4,351.4c0,0,0,87.1,13.7,163.5c0,0,15.3,76.4,41.3,134.4c0,0,27.5,58.1,62.6,105.4c0,0,35.2,47.4,76.4,79.5c0,0,42.8,33.6,88.6,55c0,0,47.4,22.9,93.2,32.1c0,0,47.4,10.7,94.7,10.7c0,0,85.6,0,142.1,-33.7c0,0,58.1,-35.1,58.1,-90.1c0,0,0,-50.4,-26,-77.9c0,0,-27.5,-29,-74.8,-29c0,0,-36.7,0,-67.3,27.5c0,0,-30.5,29,-30.5,62.6c0,0,0,13.7,1.5,26c0,0,1.5,12.2,3.1,22.9c0,0,3,12.2,3,15.3c0,0,-136,-13.8,-224.6,-133c0,0,-90.1,-120.6,-97.7,-300.9c0,0,48.8,51.9,122.2,79.4c0,0,74.8,29,142.1,29c0,0,85.5,0,155.8,-35.1c0,0,70.3,-36.7,113,-111.5c0,0,44.4,-74.9,44.4,-177.2c0,0,0,-140.6,-100.9,-232.3c0,0,-102.3,-93.1,-258.2,-93.1Z" id="f0_q" transform="scale(0.001,-0.001)"/>
    <path d="M261.3,-336c0,0,-33.7,0,-58.1,24.4c0,0,-24.4,24.5,-24.4,62.7c0,0,0,30.5,12.2,59.6L605,695.1l-394.2,0l0,-183.3l-139,0l0,287.2L686,799L727.2,687.5L352.9,-267.3c0,0,-13.7,-33.6,-38.2,-50.4c0,0,-25.9,-18.3,-53.4,-18.3Z" id="f0_r" transform="scale(0.001,-0.001)"/>
    <path d="M455.3,77.9c0,0,108.5,0,174.1,44.3c0,0,65.7,44.3,65.7,137.5c0,0,0,41.3,-19.8,76.4c0,0,-19.9,35.2,-59.6,65.7c0,0,-39.7,30.6,-76.4,53.5c0,0,-36.7,22.9,-94.7,53.5c0,0,-6.1,3,-9.2,4.5c0,0,-33.6,-16.8,-64.1,-38.2c0,0,-30.6,-21.3,-64.2,-51.9c0,0,-33.6,-32.1,-53.5,-71.8c0,0,-21.4,-39.7,-21.4,-82.5c0,0,0,-94.7,59.6,-142.1c0,0,59.6,-48.9,163.5,-48.9Zm44.3,559.2c0,0,29,15.3,53.5,32.1c0,0,25.9,18.3,53.4,44.3c0,0,27.5,27.5,42.8,64.1c0,0,16.8,38.2,16.8,81c0,0,0,68.8,-55,120.7c0,0,-56.5,52,-148.2,52c0,0,-87.1,0,-145.1,-45.9c0,0,-59.6,-47.3,-59.6,-126.8c0,0,0,-19.8,7.6,-38.2c0,0,7.7,-18.3,16.8,-33.6c0,0,10.7,-15.3,30.6,-32.1c0,0,21.4,-18.3,36.7,-29c0,0,16.8,-12.2,47.3,-30.6c0,0,30.6,-18.3,47.4,-27.5c0,0,18.3,-10.7,55,-30.5ZM459.9,-19.8c0,0,-172.7,0,-281.1,71.7c0,0,-110,73.4,-110,195.6c0,0,0,55,21.3,103.9c0,0,23,50.4,53.5,82.5c0,0,30.6,33.6,71.8,61.1c0,0,41.3,29,70.3,42.8c0,0,30.6,15.3,59.6,26c0,0,-50.4,30.5,-87.1,58c0,0,-36.7,27.5,-68.8,64.2c0,0,-33.6,38.2,-50.4,82.5c0,0,-16.8,45.8,-16.8,97.8c0,0,0,119.1,91.7,187.9c0,0,91.7,70.2,250.5,70.2c0,0,148.2,0,243,-77.9c0,0,94.7,-79.4,94.7,-194c0,0,0,-50.4,-18.3,-93.2c0,0,-19.9,-42.8,-53.5,-74.9c0,0,-33.6,-32,-67.2,-55c0,0,-35.2,-22.9,-74.9,-41.2c0,0,45.8,-26,79.4,-48.9c0,0,33.7,-22.9,70.3,-55c0,0,36.7,-32.1,59.6,-64.2c0,0,22.9,-32,38.2,-73.3c0,0,15.3,-41.2,15.3,-87.1c0,0,0,-128.3,-103.9,-203.2c0,0,-103.9,-76.3,-287.2,-76.3Z" id="f0_s" transform="scale(0.001,-0.001)"/>
    <path d="M466,282.6c0,0,44.3,0,90.1,13.8c0,0,47.4,15.3,84,47.4c0,0,36.7,33.6,36.7,74.8c0,0,0,41.3,-4.6,79.5c0,0,-6.1,39.7,-21.4,82.5c0,0,-16.8,42.7,-41.2,74.8c0,0,-24.5,32.1,-65.7,53.5c0,0,-42.8,21.4,-96.3,21.4c0,0,-85.5,0,-145.1,-62.7c0,0,-61.1,-64.1,-61.1,-158.8c0,0,0,-113.1,56.5,-169.6c0,0,58.1,-56.6,168.1,-56.6ZM352.9,-210.7c0,0,-84,0,-140.5,35.1c0,0,-58.1,35.1,-58.1,90.1c0,0,0,50.5,26,78c0,0,27.5,27.4,73.3,27.4c0,0,38.2,0,67.2,-25.9c0,0,30.6,-27.5,30.6,-62.7c0,0,0,-13.7,0,-25.9c0,0,-1.5,-12.2,-3.1,-22.9c0,0,-3,-10.7,-3,-13.8c0,0,67.2,4.6,128.3,41.3c0,0,61.1,38.2,102.4,94.6c0,0,41.2,58,68.7,126.8c0,0,27.5,68.7,36.7,140.5c0,0,-38.2,-44.3,-103.9,-65.6c0,0,-65.7,-21.4,-132.9,-21.4c0,0,-53.5,0,-102.4,9.1c0,0,-48.9,10.7,-94.7,33.6c0,0,-47.4,24.5,-81,59.6c0,0,-35.1,35.2,-55,90.2c0,0,-21.4,56.5,-21.4,125.2c0,0,0,88.7,47.4,162c0,0,47.4,74.8,129.9,116.1c0,0,82.5,42.8,180.2,42.8c0,0,172.7,0,275,-120.7c0,0,102.4,-120.7,102.4,-352.9c0,0,0,-119.2,-29,-217c0,0,-29.1,-97.8,-74.9,-158.8c0,0,-45.8,-62.6,-108.5,-105.4c0,0,-62.6,-42.8,-126.8,-61.1c0,0,-64.1,-18.3,-132.9,-18.3Z" id="f0_t" transform="scale(0.001,-0.001)"/>
    <path d="M414,73.3c0,0,61.1,0,107,47.4c0,0,45.8,48.9,67.2,122.2c0,0,21.4,73.4,21.4,158.9c0,0,0,84,-21.4,158.9c0,0,-22.9,74.9,-67.2,122.2c0,0,-45.9,48.9,-105.4,48.9c0,0,-61.2,0,-105.5,-47.4c0,0,-45.8,-48.8,-67.2,-123.7c0,0,-22.9,-74.9,-22.9,-158.9c0,0,0,-85.5,21.4,-158.9c0,0,21.4,-73.3,67.2,-120.7c0,0,45.8,-48.9,105.4,-48.9Zm1.6,-93.1c0,0,-87.1,0,-157.4,35.1c0,0,-70.3,36.6,-113.1,96.2c0,0,-44.3,59.6,-67.2,134.5C77.9,246,55,320.8,55,401.8c0,0,0,79.5,22.9,152.8c0,0,22.9,74.8,67.2,134.4c0,0,44.3,61.1,113.1,96.3c0,0,70.3,36.6,155.8,36.6c0,0,87.1,0,155.9,-35.1c0,0,70.2,-36.7,114.5,-96.2c0,0,44.4,-61.2,67.3,-134.5c0,0,22.9,-74.8,22.9,-154.3c0,0,0,-81,-22.9,-155.8c0,0,-22.9,-74.9,-65.7,-134.5c0,0,-44.3,-59.6,-114.6,-94.7c0,0,-70.3,-36.6,-155.8,-36.6Z" id="f0_k" transform="scale(0.001,-0.001)"/>
    <path d="M204.7,777.6l-33.6,55c0,0,32.1,21.4,59.6,53.5c0,0,27.5,32.1,27.5,59.6c0,0,0,12.2,-4.6,19.9c0,0,-26,-16.8,-59.6,-16.8c0,0,-35.1,0,-62.6,29c0,0,-29,29,-29,65.7c0,0,0,39.7,32,70.3c0,0,33.7,30.5,73.4,30.5c0,0,47.3,0,88.6,-38.2c0,0,41.2,-38.2,41.2,-110c0,0,0,-30.5,-7.6,-56.5c0,0,-7.6,-26,-29,-55c0,0,-21.4,-29,-38.2,-47.4c0,0,-18.4,-18.3,-58.1,-59.6Z" id="f0_a5" transform="scale(0.001,-0.001)"/>
  </defs>
  <style type="text/css">

@font-face {
	font-family: Trocchi_3c;
	src: url("fonts/Trocchi_3c.woff") format("woff");
}

@font-face {
	font-family: Trocchi_3u;
	src: url("fonts/Trocchi_3u.woff") format("woff");
}

</style>
</svg>